<?xml version="1.0" encoding="UTF-8" standalone="no"?>
<svg
   xmlns:osb="http://www.openswatchbook.org/uri/2009/osb"
   xmlns:dc="http://purl.org/dc/elements/1.1/"
   xmlns:cc="http://creativecommons.org/ns#"
   xmlns:rdf="http://www.w3.org/1999/02/22-rdf-syntax-ns#"
   xmlns:svg="http://www.w3.org/2000/svg"
   xmlns="http://www.w3.org/2000/svg"
   xmlns:xlink="http://www.w3.org/1999/xlink"
   xmlns:sodipodi="http://sodipodi.sourceforge.net/DTD/sodipodi-0.dtd"
   xmlns:inkscape="http://www.inkscape.org/namespaces/inkscape"
   id="svg8"
   version="1.1"
   viewBox="0 0 210 297"
   height="297mm"
   width="210mm"
   sodipodi:docname="ArduinoUlfur.svg"
   inkscape:version="1.0.2 (e86c870879, 2021-01-15)">
  <defs
     id="defs2">
    <linearGradient
       id="linearGradient997"
       osb:paint="solid">
      <stop
         style="stop-color:#000000;stop-opacity:1;"
         offset="0"
         id="stop995" />
    </linearGradient>
    <linearGradient
       id="linearGradient989"
       osb:paint="solid">
      <stop
         style="stop-color:#000000;stop-opacity:1;"
         offset="0"
         id="stop987" />
    </linearGradient>
    <linearGradient
       id="linearGradient981"
       osb:paint="solid">
      <stop
         style="stop-color:#000000;stop-opacity:1;"
         offset="0"
         id="stop979" />
    </linearGradient>
    <linearGradient
       id="linearGradient3306"
       osb:paint="solid">
      <stop
         style="stop-color:#000000;stop-opacity:1;"
         offset="0"
         id="stop3304" />
    </linearGradient>
    <linearGradient
       id="linearGradient3295"
       osb:paint="solid">
      <stop
         style="stop-color:#000000;stop-opacity:1;"
         offset="0"
         id="stop3293" />
    </linearGradient>
    <linearGradient
       id="linearGradient3235"
       osb:paint="solid">
      <stop
         style="stop-color:#000000;stop-opacity:1;"
         offset="0"
         id="stop3233" />
    </linearGradient>
    <linearGradient
       id="linearGradient3217"
       osb:paint="solid">
      <stop
         style="stop-color:#000000;stop-opacity:1;"
         offset="0"
         id="stop3215" />
    </linearGradient>
    <linearGradient
       inkscape:collect="always"
       xlink:href="#linearGradient3217"
       id="linearGradient3219"
       x1="38.62179"
       y1="60.269277"
       x2="62.806995"
       y2="60.269277"
       gradientUnits="userSpaceOnUse"
       gradientTransform="matrix(0.68916647,0,0,0.54017665,-15.284547,39.271927)" />
    <linearGradient
       inkscape:collect="always"
       xlink:href="#linearGradient3235"
       id="linearGradient3237"
       x1="51.652603"
       y1="48.766039"
       x2="64.689516"
       y2="48.766039"
       gradientUnits="userSpaceOnUse"
       gradientTransform="matrix(0.90714078,0,0,0.47504156,-40.840939,13.811561)" />
    <linearGradient
       inkscape:collect="always"
       xlink:href="#linearGradient3217"
       id="linearGradient3285"
       gradientUnits="userSpaceOnUse"
       gradientTransform="matrix(0.00127395,0,0,0.00410964,24.031146,66.187198)"
       x1="38.62179"
       y1="60.269277"
       x2="62.806995"
       y2="60.269277" />
    <linearGradient
       inkscape:collect="always"
       xlink:href="#linearGradient3295"
       id="linearGradient3297"
       x1="11.274791"
       y1="63.328169"
       x2="12.2827"
       y2="63.328169"
       gradientUnits="userSpaceOnUse"
       gradientTransform="matrix(9.8282974,0,0,1.4314714,-128.812,-26.132774)" />
    <linearGradient
       inkscape:collect="always"
       xlink:href="#linearGradient3295"
       id="linearGradient3300"
       gradientUnits="userSpaceOnUse"
       gradientTransform="matrix(-9.8282974,0,0,1.4314714,128.79205,-19.427575)"
       x1="11.274791"
       y1="63.328169"
       x2="12.2827"
       y2="63.328169" />
    <linearGradient
       inkscape:collect="always"
       xlink:href="#linearGradient3306"
       id="linearGradient3308"
       x1="136.65402"
       y1="30.721074"
       x2="177.42263"
       y2="30.721074"
       gradientUnits="userSpaceOnUse"
       gradientTransform="matrix(1.1830347,0,0,0.50029322,-20.651681,11.866656)" />
    <linearGradient
       inkscape:collect="always"
       xlink:href="#linearGradient3306"
       id="linearGradient3335"
       gradientUnits="userSpaceOnUse"
       gradientTransform="matrix(1.0369009,0,0,0.50029322,6.2303151,59.94079)"
       x1="136.65402"
       y1="30.721074"
       x2="177.42263"
       y2="30.721074" />
    <linearGradient
       inkscape:collect="always"
       xlink:href="#linearGradient981"
       id="linearGradient983"
       x1="179.88576"
       y1="51.793712"
       x2="190.2"
       y2="51.793712"
       gradientUnits="userSpaceOnUse"
       gradientTransform="matrix(1,0,0,0,-364.79614,48.229923)" />
    <linearGradient
       inkscape:collect="always"
       xlink:href="#linearGradient989"
       id="linearGradient991"
       x1="179.32448"
       y1="45.369002"
       x2="185.87258"
       y2="45.369002"
       gradientUnits="userSpaceOnUse"
       gradientTransform="translate(0,-40.091564)" />
    <linearGradient
       inkscape:collect="always"
       xlink:href="#linearGradient997"
       id="linearGradient999"
       x1="177.54713"
       y1="46.538305"
       x2="186.3403"
       y2="46.538305"
       gradientUnits="userSpaceOnUse"
       gradientTransform="matrix(0.43675519,0,0,0.82985607,107.33977,14.545268)" />
  </defs>
  <sodipodi:namedview
     id="base"
     pagecolor="#ffffff"
     bordercolor="#666666"
     borderopacity="1.0"
     inkscape:pageopacity="0.0"
     inkscape:pageshadow="2"
     inkscape:zoom="1"
     inkscape:cx="328.64632"
     inkscape:cy="440.28224"
     inkscape:document-units="mm"
     inkscape:current-layer="layer1"
     inkscape:document-rotation="0"
     showgrid="false"
     inkscape:window-width="1360"
     inkscape:window-height="705"
     inkscape:window-x="-8"
     inkscape:window-y="-8"
     inkscape:window-maximized="1"
     inkscape:snap-global="true"
     inkscape:snap-others="true"
     showguides="false" />
  <metadata
     id="metadata5">
    <rdf:RDF>
      <cc:Work
         rdf:about="">
        <dc:format>image/svg+xml</dc:format>
        <dc:type
           rdf:resource="http://purl.org/dc/dcmitype/StillImage" />
        <dc:title></dc:title>
      </cc:Work>
    </rdf:RDF>
  </metadata>
  <g
     inkscape:label="Lag 1"
     inkscape:groupmode="layer"
     id="layer1"
     style="display:inline">
    <g
       id="panel8065">
      <path
         style="fill:none;stroke:#000000;stroke-width:1"
         d="m 22,85.3 h 7.3883 v -3 h 6.09 v 3 h 7.3434 v -3 h 6.09 v 3 h 7.3433 v -3 h 6.09 v 3 h 7.3433 v -3 h 6.09 v 3 h 7.3434 v -3 h 6.09 v 3 H 96.6"
         id="path208" />
      <path
         style="fill:none;stroke:#000000;stroke-width:1"
         d="m 96.6,85.3 v 4.045 h -3 v 5.91 h 3 V 99.3"
         id="path210" />
      <path
         style="fill:none;stroke:#000000;stroke-width:1"
         d="m 96.6,99.3 h -7.3883 v 3 h -6.09 v -3 h -7.3434 v 3 h -6.09 v -3 H 62.345 v 3 h -6.09 v -3 h -7.3433 v 3 h -6.09 v -3 h -7.3434 v 3 h -6.09 v -3 H 22"
         id="path212" />
      <path
         style="fill:none;stroke:#000000;stroke-width:1"
         d="m 22,99.3 v -4.045 h 3 v -5.91 H 22 V 85.3"
         id="path214" />
    </g>
    <g
       id="panel8130">
      <path
         style="fill:none;stroke:#000000;stroke-width:1"
         d="m 3,106.3 h 4.38833 v 0 h 6.08997 v 0 h 7.3434 v 0 h 6.09 v 0 h 7.3433 v 0 h 6.09 v 0 h 7.3433 v 0 h 6.09 v 0 h 7.3434 v 0 h 6.09 v 0 H 71.6"
         id="path217" />
      <path
         style="fill:none;stroke:#000000;stroke-width:1"
         d="m 50.7,103.3 v 10.045 h 3 V 103.3 h -3"
         id="path219" />
      <path
         style="fill:none;stroke:#000000;stroke-width:1"
         d="m 32.8,103.3 v 10.045 h 3 V 103.3 h -3"
         id="path221" />
      <path
         style="fill:none;stroke:#000000;stroke-width:1"
         d="m 14.9,103.3 v 10.045 h 3 V 103.3 h -3"
         id="path223" />
      <path
         style="fill:none;stroke:#000000;stroke-width:1"
         d="m 71.6,106.3 v 3.955 0 6.09 0 3.955"
         id="path225" />
      <path
         style="fill:none;stroke:#000000;stroke-width:1"
         d="m 71.6,120.3 h -4.3883 v 0 h -6.09 v 0 h -7.3434 v 0 h -6.09 v 0 H 40.345 v 0 h -6.09 v 0 h -7.3433 v 0 h -6.09 v 0 h -7.3434 v 0 H 7.38833 v 0 H 3"
         id="path227" />
      <path
         style="fill:none;stroke:#000000;stroke-width:1"
         d="m 3,120.3 v -3.955 0 -6.09 0 -3.955"
         id="path229" />
      <rect
         style="fill:none;fill-rule:evenodd;stroke:url(#linearGradient983);stroke-width:0;stroke-miterlimit:4;stroke-dasharray:none"
         id="rect154"
         width="10.314244"
         height="0"
         x="-184.91039"
         y="48.229923"
         transform="scale(-1,1)" />
    </g>
    <g
       id="panel9764"
       transform="translate(19.860396,-20.478646)">
      <path
         style="fill:none;stroke:#000000;stroke-width:1"
         d="m 78.6,106.3 h 4.3883 v 0 h 6.09 v 0 h 7.3434 v 0 h 6.0903 v 0 h 7.343 v 0 h 6.09 v 0 h 7.343 v 0 h 6.09 v 0 h 7.344 v 0 h 6.09 v 0 h 4.388"
         id="path232" />
      <path
         style="fill:none;stroke:#000000;stroke-width:1"
         d="m 126.3,103.3 v 10.045 h 3 V 103.3 h -3"
         id="path234" />
      <path
         style="fill:none;stroke:#000000;stroke-width:1"
         d="m 108.4,103.3 v 10.045 h 3 V 103.3 h -3"
         id="path236" />
      <path
         style="fill:none;stroke:#000000;stroke-width:1"
         d="m 90.5,103.3 v 10.045 h 3 V 103.3 h -3"
         id="path238" />
      <path
         style="fill:none;stroke:#000000;stroke-width:1"
         d="m 147.2,106.3 v 3.955 0 6.09 0 3.955"
         id="path240" />
      <path
         style="fill:none;stroke:#000000;stroke-width:1"
         d="m 147.2,120.3 h -4.388 v 0 h -6.09 v 0 h -7.344 v 0 h -6.09 v 0 h -7.343 v 0 h -6.09 v 0 h -7.343 v 0 h -6.0903 v 0 h -7.3434 v 0 h -6.09 v 0 H 78.6"
         id="path242" />
      <path
         style="fill:none;stroke:#000000;stroke-width:1"
         d="m 78.6,120.3 v -3.955 0 -6.09 0 -3.955"
         id="path244" />
    </g>
    <g
       id="panel2805">
      <path
         style="fill:none;stroke:#000000;stroke-width:1"
         d="m 4,25 h 3.955 v -3 h 6.09 v 3 H 18"
         id="path247" />
      <path
         style="fill:none;stroke:#000000;stroke-width:1"
         d="m 18,25 v 4.015 h 3 v 6.09 h -3 v 6.97 h 3 v 6.09 h -3 v 6.97 h 3 v 6.09 h -3 v 6.97 h 3 v 6.09 H 18 V 78.3"
         id="path249" />
      <path
         style="fill:none;stroke:#000000;stroke-width:1"
         d="m 18,78.3 h -3.955 v 3 h -6.09 v -3 H 4"
         id="path251" />
      <path
         style="fill:none;stroke:#000000;stroke-width:1"
         d="M 4,78.3 V 74.285 H 1 v -6.09 h 3 v -6.97 H 1 v -6.09 h 3 v -6.97 H 1 v -6.09 h 3 v -6.97 H 1 v -6.09 H 4 V 25"
         id="path253" />
    </g>
    <g
       id="panel1757">
      <path
         style="fill:none;stroke:#000000;stroke-width:1"
         d="m 0,143.067 h 10.045 v 3 H 0 v -3"
         id="path256" />
      <path
         style="fill:none;stroke:#000000;stroke-width:1"
         d="m 0,161.833 h 10.045 v 3 H 0 v -3"
         id="path258" />
      <path
         style="fill:none;stroke:#000000;stroke-width:1"
         d="m 3,127.3 h 3.955 v 0 h 6.09 v 0 H 17"
         id="path260" />
      <path
         style="fill:none;stroke:#000000;stroke-width:1"
         d="m 17,127.3 v 4.015 0 6.09 0 6.97 0 6.09 0 6.97 0 6.09 0 6.97 0 6.09 0 4.015"
         id="path262" />
      <path
         style="fill:none;stroke:#000000;stroke-width:1"
         d="m 17,180.6 h -3.955 v 0 h -6.09 v 0 H 3"
         id="path264" />
      <path
         style="fill:none;stroke:#000000;stroke-width:1"
         d="m 3,180.6 v -4.015 0 -6.09 0 -6.97 0 -6.09 0 -6.97 0 -6.09 0 -6.97 0 -6.09 0 -4.015"
         id="path266" />
    </g>
    <g
       id="panel3540">
      <path
         style="fill:none;stroke:#000000;stroke-width:1"
         d="m 21,143.067 h 10.045 v 3 H 21 v -3"
         id="path269" />
      <path
         style="fill:none;stroke:#000000;stroke-width:1"
         d="m 21,161.833 h 10.045 v 3 H 21 v -3"
         id="path271" />
      <path
         style="fill:none;stroke:#000000;stroke-width:1"
         d="m 24,127.3 h 3.955 v 0 h 6.09 v 0 H 38"
         id="path273" />
      <path
         style="fill:none;stroke:#000000;stroke-width:1"
         d="m 38,127.3 v 4.015 0 6.09 0 6.97 0 6.09 0 6.97 0 6.09 0 6.97 0 6.09 0 4.015"
         id="path275" />
      <path
         style="fill:none;stroke:#000000;stroke-width:1"
         d="m 38,180.6 h -3.955 v 0 h -6.09 v 0 H 24"
         id="path277" />
      <path
         style="fill:none;stroke:#000000;stroke-width:1"
         d="m 24,180.6 v -4.015 0 -6.09 0 -6.97 0 -6.09 0 -6.97 0 -6.09 0 -6.97 0 -6.09 0 -4.015"
         id="path279" />
    </g>
    <g
       id="panel2524">
      <path
         style="fill:none;stroke:#000000;stroke-width:1"
         d="m 42,143.067 h 10.045 v 3 H 42 v -3"
         id="path282" />
      <path
         style="fill:none;stroke:#000000;stroke-width:1"
         d="m 42,161.833 h 10.045 v 3 H 42 v -3"
         id="path284" />
      <path
         style="fill:none;stroke:#000000;stroke-width:1"
         d="m 45,127.3 h 3.955 v 0 h 6.09 v 0 H 59"
         id="path286" />
      <path
         style="fill:none;stroke:#000000;stroke-width:1"
         d="m 59,127.3 v 4.015 0 6.09 0 6.97 0 6.09 0 6.97 0 6.09 0 6.97 0 6.09 0 4.015"
         id="path288" />
      <path
         style="fill:none;stroke:#000000;stroke-width:1"
         d="m 59,180.6 h -3.955 v 0 h -6.09 v 0 H 45"
         id="path290" />
      <path
         style="fill:none;stroke:#000000;stroke-width:1"
         d="m 45,180.6 v -4.015 0 -6.09 0 -6.97 0 -6.09 0 -6.97 0 -6.09 0 -6.97 0 -6.09 0 -4.015"
         id="path292" />
    </g>
    <g
       id="panel9251">
      <path
         style="fill:none;stroke:#000000;stroke-width:1"
         d="m 22,22 h 7.4783 v 3 h 5.91 v -3 h 7.5234 v 3 h 5.91 v -3 h 7.5233 v 3 h 5.91 v -3 h 7.5233 v 3 h 5.91 v -3 h 7.5234 v 3 h 5.91 V 22 H 96.6"
         id="path295" />
      <path
         style="fill:none;stroke:#000000;stroke-width:1"
         d="m 96.6,22 v 7.105 h -3 v 5.91 h 3 v 7.15 h -3 v 5.91 h 3 v 7.15 h -3 v 5.91 h 3 v 7.15 h -3 v 5.91 h 3 V 81.3"
         id="path297" />
      <path
         style="fill:none;stroke:#000000;stroke-width:1"
         d="m 96.6,81.3 h -7.4783 v -3 h -5.91 v 3 h -7.5234 v -3 h -5.91 v 3 H 62.255 v -3 h -5.91 v 3 h -7.5233 v -3 h -5.91 v 3 h -7.5234 v -3 h -5.91 v 3 H 22"
         id="path299" />
      <path
         style="fill:none;stroke:#000000;stroke-width:1"
         d="m 22,81.3 v -7.105 h 3 v -5.91 h -3 v -7.15 h 3 v -5.91 h -3 v -7.15 h 3 v -5.91 h -3 v -7.15 h 3 v -5.91 H 22 V 22"
         id="path301" />
    </g>
    <g
       id="panel7466">
      <path
         style="fill:none;stroke:#000000;stroke-width:1"
         d="m 100.6,25 h 3.955 v -3 h 6.09 v 3 h 3.955"
         id="path304" />
      <path
         style="fill:none;stroke:#000000;stroke-width:1"
         d="m 114.6,25 v 4.015 h 3 v 6.09 h -3 v 6.97 h 3 v 6.09 h -3 v 6.97 h 3 v 6.09 h -3 v 6.97 h 3 v 6.09 h -3 V 78.3"
         id="path306" />
      <path
         style="fill:none;stroke:#000000;stroke-width:1"
         d="m 114.6,78.3 h -3.955 v 3 h -6.09 v -3 H 100.6"
         id="path308" />
      <path
         style="fill:none;stroke:#000000;stroke-width:1"
         d="m 100.6,78.3 v -4.015 h -3 v -6.09 h 3 v -6.97 h -3 v -6.09 h 3 v -6.97 h -3 v -6.09 h 3 v -6.97 h -3 v -6.09 h 3 V 25"
         id="path310" />
    </g>
    <g
       id="panel814">
      <path
         style="fill:none;stroke:#000000;stroke-width:1"
         d="m 118.6,22 h 7.478 v 3 h 5.91 v -3 h 7.524 v 3 h 5.91 v -3 h 7.523 v 3 h 5.91 v -3 h 7.523 v 3 h 5.91 v -3 h 7.524 v 3 h 5.91 v -3 h 7.478"
         id="path313" />
      <path
         style="fill:none;stroke:#000000;stroke-width:1"
         d="m 193.2,22 v 7.105 h -3 v 5.91 h 3 v 7.15 h -3 v 5.91 h 3 v 7.15 h -3 v 5.91 h 3 v 7.15 h -3 v 5.91 h 3 V 81.3"
         id="path315" />
      <path
         style="fill:none;stroke:#000000;stroke-width:1"
         d="m 193.2,81.3 h -7.478 v -3 h -5.91 v 3 h -7.524 v -3 h -5.91 v 3 h -7.523 v -3 h -5.91 v 3 h -7.523 v -3 h -5.91 v 3 h -7.524 v -3 h -5.91 v 3 H 118.6"
         id="path317" />
      <path
         style="fill:none;stroke:#000000;stroke-width:1"
         d="m 118.6,81.3 v -7.105 h 3 v -5.91 h -3 v -7.15 h 3 v -5.91 h -3 v -7.15 h 3 v -5.91 h -3 v -7.15 h 3 v -5.91 h -3 V 22"
         id="path319" />
    </g>
    <g
       id="panel1781">
      <path
         style="fill:none;stroke:#000000;stroke-width:1"
         d="m 22,4 h 7.3883 V 1 h 6.09 v 3 h 7.3434 V 1 h 6.09 V 4 H 56.255 V 1 h 6.09 v 3 h 7.3433 V 1 h 6.09 v 3 h 7.3434 V 1 h 6.09 V 4 H 96.6"
         id="path322" />
      <path
         style="fill:none;stroke:#000000;stroke-width:1"
         d="m 96.6,4 v 4.045 h -3 v 5.91 h 3 V 18"
         id="path324" />
      <path
         style="fill:none;stroke:#000000;stroke-width:1"
         d="m 96.6,18 h -7.3883 v 3 h -6.09 v -3 h -7.3434 v 3 h -6.09 V 18 H 62.345 v 3 h -6.09 v -3 h -7.3433 v 3 h -6.09 v -3 h -7.3434 v 3 h -6.09 V 18 H 22"
         id="path326" />
      <path
         style="fill:none;stroke:#000000;stroke-width:1"
         d="m 22,18 v -4.045 h 3 V 8.045 H 22 V 4"
         id="path328" />
    </g>
    <rect
       style="fill:none;fill-rule:evenodd;stroke:url(#linearGradient3285);stroke-width:0.00060539"
       id="rect400"
       width="0.030473769"
       height="0.090067372"
       x="24.080517"
       y="66.389847"
       transform="scale(-1,1)" />
    <rect
       style="fill:none;stroke:none;stroke-width:0.264583"
       id="rect3221"
       width="0.21047476"
       height="0.16370259"
       x="14.499372"
       y="67.866417" />
    <rect
       style="fill:none;stroke:none;stroke-width:0.264583"
       id="rect3223"
       width="3.8364582"
       height="1.4552083"
       x="155.17812"
       y="136.65729" />
    <rect
       style="fill:none;stroke:none;stroke-width:0.264583"
       id="rect3227"
       width="12.195408"
       height="14.853625"
       x="-11.746453"
       y="34.853367" />
    <rect
       style="fill:none;stroke:none;stroke-width:0.264583"
       id="rect3229"
       width="22.608744"
       height="9.7834949"
       x="15.767995"
       y="37.281094" />
    <rect
       style="fill:none;stroke:url(#linearGradient3237);stroke-width:0.173685"
       id="rect3231"
       width="11.826314"
       height="10.726315"
       x="6.0152431"
       y="31.6143"
       inkscape:transform-center-x="-7.6607306"
       inkscape:transform-center-y="1.0744533" />
    <rect
       style="fill:none;fill-rule:evenodd;stroke:none;stroke-width:0.264583"
       id="rect3287"
       width="0.012335172"
       height="0.017617211"
       x="22.056913"
       y="31.6143" />
    <rect
       style="fill:none;fill-rule:evenodd;stroke:none;stroke-width:0.264583"
       id="rect3289"
       width="6.7252078"
       height="13.718328"
       x="11.274792"
       y="60.566669" />
    <path
       id="rect3291"
       style="fill:none;fill-rule:evenodd;stroke:url(#linearGradient3300);stroke-width:0.993973;stroke-miterlimit:4;stroke-dasharray:none"
       d="M 17.980054,67.271868 H 8.0740289 v 7.906027 h 9.9060251 z" />
    <rect
       style="fill:none;fill-rule:evenodd;stroke:url(#linearGradient3308);stroke-width:0.76933"
       id="rect3302"
       width="48.230671"
       height="2.2306705"
       x="141.01477"
       y="26.120867" />
    <rect
       style="display:inline;fill:none;fill-rule:evenodd;stroke:url(#linearGradient3335);stroke-width:0.720249"
       id="rect3302-8"
       width="42.273003"
       height="2.2306705"
       x="147.92699"
       y="74.195"
       inkscape:transform-center-y="5.4436172"
       inkscape:transform-center-x="-2.0621075e-06" />
    <path
       style="color:#000000;font-style:normal;font-variant:normal;font-weight:normal;font-stretch:normal;font-size:medium;line-height:normal;font-family:sans-serif;font-variant-ligatures:normal;font-variant-position:normal;font-variant-caps:normal;font-variant-numeric:normal;font-variant-alternates:normal;font-variant-east-asian:normal;font-feature-settings:normal;font-variation-settings:normal;text-indent:0;text-align:start;text-decoration:none;text-decoration-line:none;text-decoration-style:solid;text-decoration-color:#000000;letter-spacing:normal;word-spacing:normal;text-transform:none;writing-mode:lr-tb;direction:ltr;text-orientation:mixed;dominant-baseline:auto;baseline-shift:baseline;text-anchor:start;white-space:normal;shape-padding:0;shape-margin:0;inline-size:0;clip-rule:nonzero;display:inline;overflow:visible;visibility:visible;isolation:auto;mix-blend-mode:normal;color-interpolation:sRGB;color-interpolation-filters:linearRGB;solid-color:#000000;solid-opacity:1;vector-effect:none;fill:#ff0000;fill-opacity:1;fill-rule:nonzero;stroke:none;stroke-width:0.0846667;stroke-linecap:butt;stroke-linejoin:miter;stroke-miterlimit:4;stroke-dasharray:none;stroke-dashoffset:0;stroke-opacity:1;color-rendering:auto;image-rendering:auto;shape-rendering:auto;text-rendering:auto;enable-background:accumulate;stop-color:#000000"
       d="m 142.57941,67.411896 c -0.31721,-0.1934 -0.34445,-0.33532 -0.10583,-0.55126 0.0931,-0.0843 0.16933,-0.22129 0.16933,-0.30446 0,-0.0832 0.04,-0.17592 0.0888,-0.20613 0.0538,-0.0332 0.004,-0.1338 -0.127,-0.25495 -0.21563,-0.19984 -0.26745,-0.47273 -0.16343,-0.8607 0.0596,-0.22214 0.68846,-0.49308 0.95106,-0.40973 0.0985,0.0313 0.28834,-0.004 0.43949,-0.0826 0.14635,-0.0757 0.28631,-0.11739 0.31102,-0.0927 0.0951,0.0951 -0.0637,0.30623 -0.23031,0.30623 -0.14675,0 -0.16084,0.0264 -0.0873,0.16377 0.12017,0.22453 0.1102,0.70508 -0.0182,0.87654 -0.0582,0.0777 -0.25544,0.17187 -0.43828,0.20918 -0.43865,0.0895 -0.47445,0.24052 -0.0734,0.30962 0.82435,0.14205 0.78685,0.11899 0.78685,0.48394 0,0.30367 -0.0285,0.34814 -0.29361,0.45894 -0.40824,0.17057 -0.88397,0.15258 -1.20922,-0.0457 z m 1.2065,-0.33721 c 0,-0.22359 -0.19555,-0.31711 -0.69552,-0.33261 -0.19475,-0.006 -0.29908,0.0418 -0.3667,0.16814 -0.10808,0.20197 -0.11058,0.19741 0.19495,0.35592 0.14556,0.0755 0.34504,0.0998 0.54806,0.0668 0.26769,-0.0435 0.31921,-0.0852 0.31921,-0.2583 z m -0.2285,-1.50252 c 0.0238,-0.41223 0.011,-0.44542 -0.1905,-0.49601 -0.1188,-0.0298 -0.31125,-0.0303 -0.42767,-10e-4 -0.18454,0.0463 -0.21166,0.0996 -0.21166,0.41558 0,0.44688 0.12392,0.58074 0.50763,0.54836 0.2943,-0.0248 0.29691,-0.0286 0.3222,-0.46684 z m 3.11016,1.92832 c -0.0271,-0.0439 0.1135,-0.15267 0.3125,-0.24171 0.19901,-0.089 0.43303,-0.24208 0.52004,-0.3401 0.15663,-0.17645 0.15518,-0.17965 -0.14731,-0.3239 -0.33285,-0.15872 -0.335,-0.16294 -0.48499,-0.95203 -0.0762,-0.401 -0.14305,-0.5511 -0.25883,-0.58138 -0.22518,-0.0589 -0.19187,-0.16306 0.0734,-0.22964 0.31001,-0.0778 0.40188,0.0678 0.52521,0.83232 0.0861,0.53343 0.13088,0.63682 0.31187,0.71928 0.11626,0.053 0.2245,0.0963 0.24053,0.0963 0.0608,0 0.28373,-0.64983 0.34106,-0.99414 0.0564,-0.33901 0.0463,-0.36445 -0.18036,-0.4537 -0.23807,-0.0937 -0.23853,-0.0953 -0.0526,-0.18167 0.14306,-0.0664 0.23853,-0.0537 0.40217,0.0535 0.25806,0.16909 0.26091,0.2229 0.0483,0.91093 -0.19049,0.61639 -0.58812,1.29775 -0.91903,1.57484 -0.23099,0.19341 -0.64253,0.25587 -0.73201,0.1111 z m -7.8082,-0.81912 c -0.27731,-0.13675 -0.30495,-0.20627 -0.49697,-1.24982 -0.0399,-0.21703 -0.11398,-0.34243 -0.2183,-0.36971 -0.16014,-0.0419 -0.22268,-0.19087 -0.0801,-0.19087 0.0428,0 0.1331,-0.0212 0.20075,-0.0472 0.21726,-0.0834 0.37092,0.18742 0.476,0.83882 0.10386,0.64383 0.24174,0.87524 0.46943,0.78787 0.14847,-0.057 0.36687,-0.54885 0.4362,-0.98243 0.0444,-0.27786 0.0254,-0.31968 -0.19156,-0.42068 -0.23932,-0.11143 -0.23967,-0.11272 -0.0533,-0.19824 0.14332,-0.0658 0.24049,-0.0514 0.41168,0.0607 0.19971,0.13085 0.21822,0.18354 0.17012,0.4843 -0.085,0.53148 -0.58783,1.42923 -0.79661,1.42223 -0.0316,-0.001 -0.17889,-0.0618 -0.32732,-0.13501 z m 2.11804,0.0135 c -0.34679,-0.15085 -0.45117,-0.35735 -0.45117,-0.89258 0,-0.56809 0.0909,-0.71804 0.53899,-0.88917 0.33815,-0.12914 0.39444,-0.13009 0.62548,-0.0106 0.31624,0.16353 0.41523,0.5344 0.20115,0.75362 -0.0838,0.0858 -0.33533,0.17251 -0.5868,0.20229 -0.38987,0.0462 -0.44015,0.0747 -0.44015,0.24983 0,0.27247 0.4135,0.48145 0.80669,0.40769 0.3598,-0.0675 0.37726,0.001 0.0442,0.17318 -0.30165,0.15599 -0.39139,0.15669 -0.73837,0.006 z m 0.46958,-1.03016 c 0.20587,-0.0412 0.26459,-0.0969 0.26459,-0.25102 0,-0.25383 -0.24307,-0.38432 -0.55867,-0.29992 -0.24539,0.0656 -0.3439,0.2514 -0.25549,0.4818 0.0517,0.13482 0.15575,0.1479 0.54957,0.0691 z m 4.13809,1.09294 c -0.26751,-0.0405 -0.28115,-0.0725 -0.10584,-0.24779 0.0916,-0.0916 0.127,-0.31478 0.127,-0.80101 0,-0.61954 -0.0154,-0.68029 -0.1905,-0.75163 l -0.1905,-0.0776 0.18237,-0.0544 c 0.15994,-0.0477 0.17296,-0.0872 0.10583,-0.32126 -0.14046,-0.48977 -0.0989,-0.64105 0.21756,-0.79196 0.35134,-0.16755 0.72191,-0.0542 0.72191,0.22083 0,0.2426 -0.1472,0.29396 -0.2716,0.0948 -0.11231,-0.17984 -0.35961,-0.23109 -0.44538,-0.0923 -0.0273,0.0442 -0.006,0.25373 0.0474,0.46567 0.0871,0.34573 0.12211,0.38534 0.34098,0.38534 0.13418,0 0.24395,0.0381 0.24395,0.0847 0,0.0466 -0.0953,0.0847 -0.21166,0.0847 -0.20621,0 -0.2117,0.0158 -0.21283,0.61384 -6.8e-4,0.33761 -0.0228,0.69431 -0.0492,0.79267 -0.0367,0.13662 -10e-4,0.19159 0.14933,0.23283 0.16385,0.0448 0.17578,0.0681 0.0703,0.13737 -0.0699,0.0459 -0.1651,0.0782 -0.21166,0.072 -0.0466,-0.006 -0.18945,-0.0273 -0.3175,-0.0467 z m 3.556,0 c -0.26751,-0.0405 -0.28115,-0.0725 -0.10584,-0.24779 0.0902,-0.0902 0.127,-0.31007 0.127,-0.75868 0,-0.57723 -0.0164,-0.6379 -0.1905,-0.70391 -0.18869,-0.0716 -0.1882,-0.0733 0.0516,-0.18442 0.21486,-0.0996 0.255,-0.0946 0.35665,0.0444 0.10878,0.14877 0.12562,0.14938 0.33505,0.0122 0.24916,-0.16326 0.46319,-0.0658 0.46319,0.21087 0,0.22789 -0.16392,0.28807 -0.29679,0.10894 -0.19782,-0.2667 -0.35559,0.0101 -0.40149,0.7044 -0.0372,0.56285 -0.0271,0.61062 0.13857,0.65616 0.15038,0.0413 0.15858,0.0623 0.0517,0.1325 -0.0698,0.0459 -0.1651,0.0783 -0.21166,0.072 -0.0466,-0.006 -0.18945,-0.0273 -0.3175,-0.0467 z m 1.60866,0 c -0.2675,-0.0405 -0.28115,-0.0725 -0.10583,-0.24779 0.0902,-0.0902 0.127,-0.31007 0.127,-0.75868 0,-0.57723 -0.0164,-0.6379 -0.1905,-0.70391 -0.18967,-0.0719 -0.18947,-0.0727 0.0446,-0.18124 0.37022,-0.17164 0.4422,-0.0254 0.4422,0.8984 0,0.70541 0.0175,0.79993 0.14817,0.7999 0.0815,-2e-5 0.14817,0.034 0.14817,0.0756 0,0.0765 -0.22034,0.18905 -0.32443,0.16571 -0.0311,-0.007 -0.16135,-0.0286 -0.28941,-0.048 z m 1.27,0 c -0.2675,-0.0405 -0.28115,-0.0725 -0.10583,-0.24779 0.0902,-0.0902 0.127,-0.31007 0.127,-0.75868 0,-0.57723 -0.0164,-0.6379 -0.1905,-0.70391 -0.18869,-0.0716 -0.1882,-0.0733 0.0516,-0.18442 0.21485,-0.0996 0.255,-0.0946 0.35664,0.0444 0.10879,0.14877 0.12562,0.14938 0.33506,0.0122 0.24916,-0.16326 0.46319,-0.0658 0.46319,0.21087 0,0.22789 -0.16393,0.28807 -0.29679,0.10894 -0.19783,-0.2667 -0.35559,0.0101 -0.4015,0.7044 -0.0372,0.56285 -0.0271,0.61062 0.13858,0.65616 0.15037,0.0413 0.15857,0.0623 0.0517,0.1325 -0.0699,0.0459 -0.1651,0.0783 -0.21167,0.072 -0.0466,-0.006 -0.18944,-0.0273 -0.3175,-0.0467 z m 2.45533,0 c -0.2675,-0.0405 -0.28114,-0.0725 -0.10583,-0.24779 0.0916,-0.0916 0.127,-0.31478 0.127,-0.80101 0,-0.61954 -0.0154,-0.68029 -0.1905,-0.75163 l -0.1905,-0.0776 0.18237,-0.0544 c 0.15994,-0.0477 0.17295,-0.0872 0.10583,-0.32126 -0.14046,-0.48977 -0.0989,-0.64105 0.21756,-0.79196 0.35134,-0.16755 0.72191,-0.0542 0.72191,0.22083 0,0.2426 -0.1472,0.29396 -0.2716,0.0948 -0.11231,-0.17984 -0.35961,-0.23109 -0.44538,-0.0923 -0.0273,0.0442 -0.006,0.25373 0.0474,0.46567 0.0871,0.34573 0.12211,0.38534 0.34098,0.38534 0.13417,0 0.24395,0.0381 0.24395,0.0847 0,0.0466 -0.0952,0.0847 -0.21167,0.0847 -0.2062,0 -0.21169,0.0158 -0.21282,0.61384 -6.9e-4,0.33761 -0.0228,0.69431 -0.0492,0.79267 -0.0367,0.13662 -0.001,0.19159 0.14933,0.23283 0.16385,0.0448 0.17578,0.0681 0.0703,0.13737 -0.0699,0.0459 -0.1651,0.0782 -0.21167,0.072 -0.0466,-0.006 -0.18944,-0.0273 -0.3175,-0.0467 z m 1.35467,0 c -0.2675,-0.0405 -0.28115,-0.0725 -0.10583,-0.24779 0.0902,-0.0902 0.127,-0.31007 0.127,-0.75868 0,-0.57723 -0.0164,-0.6379 -0.1905,-0.70391 -0.18869,-0.0716 -0.1882,-0.0733 0.0516,-0.18442 0.21485,-0.0996 0.255,-0.0946 0.35664,0.0444 0.10879,0.14877 0.12562,0.14938 0.33506,0.0122 0.24916,-0.16326 0.46319,-0.0658 0.46319,0.21087 0,0.22789 -0.16393,0.28807 -0.29679,0.10894 -0.19783,-0.2667 -0.3556,0.0101 -0.4015,0.7044 -0.0372,0.56285 -0.0271,0.61062 0.13858,0.65616 0.15037,0.0413 0.15857,0.0623 0.0517,0.1325 -0.0699,0.0459 -0.1651,0.0783 -0.21167,0.072 -0.0466,-0.006 -0.18944,-0.0273 -0.3175,-0.0467 z m 1.827,-0.0628 c -0.34679,-0.15085 -0.45117,-0.35735 -0.45117,-0.89258 0,-0.56809 0.0909,-0.71804 0.539,-0.88917 0.33815,-0.12914 0.39443,-0.13009 0.62547,-0.0106 0.31625,0.16353 0.41523,0.5344 0.20115,0.75362 -0.0838,0.0858 -0.33533,0.17251 -0.5868,0.20229 -0.38987,0.0462 -0.44015,0.0747 -0.44015,0.24983 0,0.27247 0.4135,0.48145 0.80669,0.40769 0.3598,-0.0675 0.37726,0.001 0.0442,0.17318 -0.30165,0.15599 -0.39138,0.15669 -0.73837,0.006 z m 0.46958,-1.03016 c 0.20587,-0.0412 0.26459,-0.0969 0.26459,-0.25102 0,-0.25383 -0.24307,-0.38432 -0.55867,-0.29992 -0.24539,0.0656 -0.3439,0.2514 -0.25548,0.4818 0.0517,0.13482 0.15574,0.1479 0.54956,0.0691 z m 1.17475,1.09294 c -0.21569,-0.0327 -0.33882,-0.19336 -0.14816,-0.19336 0.0529,0 0.0847,-0.50369 0.0847,-1.34173 0,-1.3089 -0.005,-1.34388 -0.1905,-1.42974 -0.18996,-0.0878 -0.18984,-0.0882 0.0421,-0.14907 0.47666,-0.1251 0.48702,-0.0939 0.48702,1.46868 0,1.41324 0.003,1.4328 0.1905,1.48432 0.15892,0.0435 0.16944,0.066 0.0635,0.13558 -0.0699,0.0459 -0.1651,0.0782 -0.21167,0.072 -0.0466,-0.006 -0.18944,-0.0273 -0.3175,-0.0467 z m 1.22767,-0.0623 c -0.17704,-0.0791 -0.27517,-0.18297 -0.27517,-0.29133 0,-0.26007 0.13618,-0.28396 0.28903,-0.0507 0.22011,0.33593 0.81164,0.2693 0.81164,-0.0914 0,-0.17174 -0.0738,-0.22131 -0.52888,-0.35533 -0.55169,-0.16247 -0.63506,-0.26402 -0.53711,-0.65427 0.0345,-0.13757 0.16737,-0.24286 0.4357,-0.34534 0.36002,-0.13749 0.40565,-0.13806 0.67749,-0.008 0.32505,0.15501 0.34476,0.20613 0.17079,0.44305 -0.11628,0.15837 -0.12404,0.15553 -0.21317,-0.078 -0.0744,-0.19489 -0.12949,-0.2324 -0.2815,-0.19166 -0.10394,0.0279 -0.25819,0.0512 -0.34278,0.0518 -0.1167,8e-4 -0.14733,0.0557 -0.127,0.22736 0.0236,0.199 0.0879,0.24227 0.53479,0.35984 l 0.508,0.13364 0.026,0.36007 c 0.0237,0.32704 0.004,0.36837 -0.21167,0.45065 -0.41079,0.15655 -0.65219,0.16686 -0.93621,0.04 z m 1.905,0.0623 c -0.2675,-0.0405 -0.28115,-0.0725 -0.10583,-0.24779 0.0902,-0.0902 0.127,-0.31007 0.127,-0.75868 0,-0.57723 -0.0164,-0.6379 -0.1905,-0.70391 -0.18966,-0.0719 -0.18947,-0.0727 0.0446,-0.18124 0.37022,-0.17164 0.4422,-0.0254 0.4422,0.8984 0,0.70541 0.0175,0.79993 0.14817,0.7999 0.0815,-2e-5 0.14816,0.034 0.14816,0.0756 0,0.0765 -0.22033,0.18905 -0.32442,0.16571 -0.0311,-0.007 -0.16135,-0.0286 -0.28941,-0.048 z m 2.11666,-0.0725 c -0.18425,-0.1 -0.23283,-0.18696 -0.23283,-0.41697 0,-0.34385 0.18524,-0.47676 0.762,-0.54672 0.33911,-0.0411 0.38394,-0.0718 0.40778,-0.27901 0.0214,-0.18575 -0.0182,-0.24991 -0.19601,-0.3175 -0.31314,-0.11906 -0.55044,-0.10529 -0.55044,0.0319 0,0.0641 -0.0539,0.16141 -0.11988,0.21613 -0.0957,0.0794 -0.13095,0.0646 -0.1748,-0.0735 -0.077,-0.24256 -0.016,-0.30602 0.40842,-0.42484 0.31714,-0.0888 0.41127,-0.0839 0.63719,0.0329 l 0.26507,0.13708 v 0.75983 c 0,0.70338 0.0126,0.75982 0.16934,0.75982 0.0931,0 0.16933,0.034 0.16933,0.0756 0,0.14184 -0.27745,0.18249 -0.45643,0.0669 -0.14771,-0.0954 -0.22247,-0.0964 -0.43257,-0.006 -0.32218,0.13904 -0.37294,0.13782 -0.65617,-0.0158 z m 0.73532,-0.20348 c 0.16706,-0.0635 0.21718,-0.14167 0.21718,-0.33867 0,-0.27697 -0.0776,-0.30407 -0.58208,-0.20318 -0.19902,0.0398 -0.26458,0.0986 -0.26458,0.23707 0,0.34682 0.22825,0.45733 0.62948,0.30478 z m 1.68435,0.21315 c -0.34679,-0.15085 -0.45117,-0.35735 -0.45117,-0.89258 0,-0.57108 0.0907,-0.71795 0.55186,-0.89408 0.30475,-0.11639 0.42783,-0.12707 0.59363,-0.0515 0.11505,0.0524 0.20904,0.0675 0.20886,0.0336 -5.3e-4,-0.0916 -0.32794,-0.61202 -0.38509,-0.61202 -0.0271,0 -0.18003,0.0998 -0.33991,0.22172 -0.34363,0.2621 -0.38273,0.17996 -0.0698,-0.14665 l 0.22087,-0.23054 -0.2632,-0.1361 c -0.25596,-0.13237 -0.35366,-0.3011 -0.17433,-0.3011 0.0489,0 0.20418,0.0596 0.34512,0.13252 0.23394,0.12097 0.27475,0.12038 0.46881,-0.007 0.24984,-0.1637 0.37437,-0.0966 0.18052,0.0972 -0.12259,0.12258 -0.11712,0.15956 0.0629,0.42479 0.23398,0.3448 0.33628,1.02575 0.25356,1.68784 -0.0566,0.45335 -0.0737,0.47958 -0.41193,0.63315 -0.41834,0.18994 -0.44407,0.19126 -0.79066,0.0405 z m 0.83785,-0.32779 c 0.0347,-0.0545 0.0636,-0.33262 0.0643,-0.61802 0.001,-0.49523 -0.0101,-0.52361 -0.2484,-0.62232 -0.16977,-0.0703 -0.3256,-0.0782 -0.48683,-0.0247 -0.22403,0.0744 -0.23852,0.10969 -0.26207,0.63881 -0.0239,0.53672 -0.0151,0.56551 0.21167,0.69035 0.24922,0.13723 0.61381,0.10481 0.72128,-0.0641 z m 1.14515,0.39057 c -0.2675,-0.0405 -0.28115,-0.0725 -0.10583,-0.24779 0.0902,-0.0902 0.127,-0.31007 0.127,-0.75868 0,-0.57723 -0.0164,-0.6379 -0.1905,-0.70391 -0.1887,-0.0716 -0.18821,-0.0733 0.0516,-0.18442 0.21486,-0.0996 0.255,-0.0946 0.35665,0.0444 0.10878,0.14877 0.12562,0.14938 0.33506,0.0122 0.24916,-0.16326 0.46319,-0.0658 0.46319,0.21087 0,0.22789 -0.16393,0.28807 -0.2968,0.10894 -0.19782,-0.2667 -0.35559,0.0101 -0.40149,0.7044 -0.0372,0.56285 -0.0271,0.61062 0.13857,0.65616 0.15038,0.0413 0.15858,0.0623 0.0517,0.1325 -0.0699,0.0459 -0.1651,0.0783 -0.21167,0.072 -0.0466,-0.006 -0.18944,-0.0273 -0.3175,-0.0467 z m 1.60867,-0.0725 c -0.18426,-0.1 -0.23284,-0.18696 -0.23284,-0.41697 0,-0.34385 0.18524,-0.47676 0.762,-0.54672 0.33912,-0.0411 0.38395,-0.0718 0.40779,-0.27901 0.0214,-0.18575 -0.0182,-0.24991 -0.19601,-0.3175 -0.31314,-0.11906 -0.55044,-0.10529 -0.55044,0.0319 0,0.0641 -0.0539,0.16141 -0.11988,0.21613 -0.0957,0.0794 -0.13095,0.0646 -0.1748,-0.0735 -0.077,-0.24256 -0.016,-0.30602 0.40842,-0.42484 0.31713,-0.0888 0.41126,-0.0839 0.63718,0.0329 l 0.26508,0.13708 v 0.75983 c 0,0.70338 0.0126,0.75982 0.16933,0.75982 0.0931,0 0.16933,0.034 0.16933,0.0756 0,0.14184 -0.27745,0.18249 -0.45643,0.0669 -0.1477,-0.0954 -0.22247,-0.0964 -0.43257,-0.006 -0.32218,0.13904 -0.37294,0.13782 -0.65616,-0.0158 z m 0.73532,-0.20348 c 0.16706,-0.0635 0.21718,-0.14167 0.21718,-0.33867 0,-0.27697 -0.0776,-0.30407 -0.58209,-0.20318 -0.19902,0.0398 -0.26458,0.0986 -0.26458,0.23707 0,0.34682 0.22825,0.45733 0.62949,0.30478 z m -20.61434,-2.25001 c -0.09,-0.10842 -0.0844,-0.15575 0.032,-0.27214 0.13141,-0.13142 0.15038,-0.13142 0.28179,0 0.11639,0.11639 0.12195,0.16372 0.032,0.27214 -0.0599,0.0722 -0.13769,0.13125 -0.17285,0.13125 -0.0352,0 -0.11295,-0.0591 -0.17286,-0.13125 z m 11.684,0 c -0.09,-0.10842 -0.0844,-0.15575 0.032,-0.27214 0.13141,-0.13142 0.15037,-0.13142 0.28179,0 0.11639,0.11639 0.12195,0.16372 0.032,0.27214 -0.0599,0.0722 -0.13769,0.13125 -0.17286,0.13125 -0.0352,0 -0.11294,-0.0591 -0.17285,-0.13125 z m -18.15129,-3.161897 c -0.14597,-0.05719 -0.1482,-0.06964 -0.0212,-0.118393 0.12643,-0.04851 0.14197,-0.243406 0.14197,-1.779865 0,-1.706769 -0.002,-1.726338 -0.1905,-1.813399 -0.18996,-0.08777 -0.18984,-0.08819 0.0421,-0.149069 0.42999,-0.112853 0.48702,-0.02894 0.48702,0.716548 0,0.373993 0.0209,0.679989 0.0465,0.679989 0.0256,0 0.16285,-0.06015 0.30502,-0.13367 0.21503,-0.111196 0.30095,-0.116083 0.51101,-0.02908 0.38725,0.160404 0.4921,0.311367 0.4921,0.708544 0,0.728467 -0.0767,0.899509 -0.48379,1.079606 -0.29711,0.131429 -0.4248,0.147576 -0.62234,0.07871 l -0.24854,-0.08664 v 0.376595 c 0,0.323749 0.0245,0.376594 0.17433,0.376594 0.0959,0 0.15078,0.0381 0.122,0.08467 -0.0603,0.09756 -0.51576,0.102894 -0.75581,0.0089 z m 1.2583,-1.02276 c 0.19876,-0.07557 0.21707,-0.124026 0.21588,-0.5715 -10e-4,-0.537255 -0.0381,-0.629153 -0.30785,-0.771094 -0.13246,-0.06971 -0.2537,-0.07091 -0.4445,-0.0044 -0.25934,0.09041 -0.26235,0.09819 -0.26235,0.678572 0,0.529725 0.0186,0.594598 0.1905,0.663684 0.25359,0.101933 0.35068,0.102687 0.60832,0.0047 z m -6.36565,0.275326 c -0.26557,-0.03296 -0.39659,-0.192754 -0.15805,-0.192754 0.17488,0 0.21911,-0.277099 0.22039,-1.380702 l 0.001,-0.999702 -0.35983,0.02604 c -0.33838,0.02447 -0.36236,0.0433 -0.40217,0.315637 -0.0414,0.283009 -0.254,0.480603 -0.254,0.236038 0,-0.06791 -0.0223,-0.234942 -0.0495,-0.371182 -0.0696,-0.348183 0.20146,-0.450791 1.19102,-0.450791 0.99696,0 1.22919,0.07827 1.22919,0.414313 0,0.570775 -0.22266,0.70049 -0.30615,0.178353 -0.0522,-0.326546 -0.0657,-0.338666 -0.37754,-0.338666 h -0.32338 l -0.0256,1.185471 c -0.0255,1.18056 -0.0249,1.185471 0.16487,1.185333 0.10477,-7.4e-5 0.1905,0.03389 0.1905,0.07547 0,0.08636 -0.2195,0.185015 -0.36676,0.16484 -0.0544,-0.0075 -0.22274,-0.02892 -0.37408,-0.0477 z m 1.98966,5.29e-4 c -0.2675,-0.04052 -0.28114,-0.07247 -0.10583,-0.247788 0.0902,-0.09019 0.127,-0.310075 0.127,-0.758679 0,-0.577231 -0.0164,-0.637908 -0.1905,-0.703916 -0.18966,-0.07192 -0.18947,-0.07272 0.0446,-0.181243 0.37022,-0.171624 0.4422,-0.0254 0.4422,0.89842 0,0.705411 0.0175,0.799928 0.14817,0.799896 0.0815,-2.1e-5 0.14817,0.03399 0.14817,0.07557 0,0.07651 -0.22034,0.189045 -0.32443,0.165706 -0.0311,-0.007 -0.16135,-0.02856 -0.28941,-0.04796 z m 1.27,0 c -0.21569,-0.03266 -0.33882,-0.193347 -0.14816,-0.193347 0.0529,0 0.0847,-0.503687 0.0847,-1.341729 0,-1.308899 -0.005,-1.343882 -0.1905,-1.429739 -0.18996,-0.08777 -0.18984,-0.08819 0.0422,-0.14907 0.47666,-0.1251 0.48702,-0.09385 0.48702,1.468671 0,1.413246 0.003,1.432806 0.1905,1.484323 0.15891,0.04355 0.16944,0.06603 0.0635,0.135578 -0.0699,0.04586 -0.1651,0.07825 -0.21167,0.07199 -0.0466,-0.0063 -0.18944,-0.02726 -0.3175,-0.04666 z m 4.40267,-0.07245 c -0.18425,-0.09996 -0.23283,-0.18696 -0.23283,-0.416965 0,-0.343855 0.18523,-0.476761 0.762,-0.546724 0.33911,-0.04114 0.38394,-0.07181 0.40778,-0.279011 0.0214,-0.185749 -0.0182,-0.24991 -0.19601,-0.3175 -0.31314,-0.119055 -0.55044,-0.105291 -0.55044,0.03192 0,0.06415 -0.054,0.161404 -0.11988,0.216125 -0.0957,0.07944 -0.13095,0.06462 -0.1748,-0.07354 -0.077,-0.242557 -0.016,-0.306014 0.40842,-0.424839 0.31714,-0.08879 0.41126,-0.08393 0.63718,0.0329 l 0.26508,0.137075 V 59.3696 c 0,0.703382 0.0126,0.759828 0.16933,0.759828 0.0931,0 0.16934,0.03402 0.16934,0.07561 0,0.141846 -0.27746,0.182496 -0.45643,0.06687 -0.14771,-0.09542 -0.22248,-0.09641 -0.43257,-0.0057 -0.32218,0.139044 -0.37294,0.137819 -0.65617,-0.01582 z m 0.73532,-0.203478 c 0.16706,-0.06352 0.21718,-0.141671 0.21718,-0.338666 0,-0.276974 -0.0776,-0.30407 -0.58208,-0.203179 -0.19902,0.0398 -0.26459,0.09855 -0.26459,0.237066 0,0.346816 0.22825,0.457327 0.62949,0.304779 z m 2.35501,0.213643 c -0.17704,-0.07907 -0.27516,-0.182959 -0.27516,-0.291322 0,-0.260075 0.13618,-0.283958 0.28902,-0.05069 0.22011,0.335931 0.81164,0.269301 0.81164,-0.09142 0,-0.171741 -0.0738,-0.221308 -0.52888,-0.355333 -0.55169,-0.16247 -0.63506,-0.26402 -0.53711,-0.654272 0.0345,-0.137567 0.16737,-0.242856 0.4357,-0.345332 0.36002,-0.137493 0.40566,-0.138062 0.67749,-0.0084 0.32505,0.155006 0.34476,0.206124 0.17079,0.443048 -0.11628,0.158363 -0.12404,0.155524 -0.21317,-0.07796 -0.0744,-0.194892 -0.12949,-0.232402 -0.28149,-0.191659 -0.10395,0.02786 -0.2582,0.05118 -0.34279,0.05182 -0.1167,7.93e-4 -0.14733,0.0557 -0.127,0.227356 0.0236,0.198999 0.0879,0.242269 0.5348,0.359839 l 0.508,0.133638 0.026,0.360069 c 0.0237,0.327041 0.004,0.368374 -0.21167,0.450654 -0.41079,0.156544 -0.65219,0.16686 -0.93621,0.04 z m 2.12333,-5.29e-4 c -0.34679,-0.150828 -0.45116,-0.357322 -0.45116,-0.892553 0,-0.568087 0.0909,-0.71804 0.53899,-0.88917 0.33815,-0.129138 0.39444,-0.130095 0.62547,-0.01061 0.31625,0.163536 0.41524,0.534402 0.20115,0.753623 -0.0838,0.08579 -0.33533,0.172511 -0.58679,0.202295 -0.38988,0.04617 -0.44015,0.07471 -0.44015,0.249828 0,0.272473 0.4135,0.481449 0.80669,0.407686 0.35979,-0.0675 0.37725,0.0011 0.0442,0.173188 -0.30165,0.155988 -0.39139,0.156686 -0.73838,0.0057 z m 0.46959,-1.030137 c 0.20587,-0.04117 0.26458,-0.09688 0.26458,-0.25102 0,-0.253831 -0.24306,-0.384318 -0.55866,-0.299916 -0.24539,0.06562 -0.3439,0.251396 -0.25549,0.481798 0.0517,0.134818 0.15575,0.147905 0.54957,0.06914 z m 1.17475,1.092941 c -0.25457,-0.03856 -0.3059,-0.147201 -0.10584,-0.223975 0.0984,-0.03774 0.127,-0.202694 0.127,-0.731454 0,-0.630155 -0.0147,-0.688279 -0.1905,-0.754954 -0.18869,-0.07155 -0.18819,-0.0733 0.0516,-0.18442 0.21351,-0.09893 0.25514,-0.09437 0.3524,0.03865 0.10383,0.141986 0.12624,0.142589 0.38211,0.01027 0.25272,-0.130689 0.29745,-0.130763 0.63706,-0.0011 0.33646,0.128498 0.38602,0.128749 0.62885,0.0032 0.28184,-0.145745 0.53577,-0.111035 0.78431,0.107215 0.11888,0.104391 0.14816,0.269761 0.14816,0.836652 0,0.588121 0.0225,0.706544 0.13406,0.706544 0.0737,0 0.11725,0.04763 0.0967,0.105833 -0.0241,0.06823 -0.16821,0.09706 -0.40569,0.08115 -0.43035,-0.02884 -0.51577,-0.08306 -0.3112,-0.197538 0.11916,-0.06669 0.14746,-0.201105 0.14746,-0.700379 0,-0.556755 -0.0186,-0.626152 -0.18809,-0.701781 -0.1247,-0.05564 -0.28162,-0.05522 -0.46566,0.0013 l -0.27759,0.08519 v 0.653254 c 0,0.605134 0.014,0.657199 0.1905,0.706816 0.30951,0.08702 -0.0163,0.224065 -0.38896,0.163594 -0.27309,-0.04432 -0.44748,-0.197408 -0.22487,-0.197408 0.0494,0 0.0847,-0.28313 0.0847,-0.680061 0,-0.62746 -0.0147,-0.685499 -0.19006,-0.750369 -0.10715,-0.03964 -0.29183,-0.03483 -0.42334,0.01101 -0.2214,0.07718 -0.23327,0.108551 -0.23327,0.616448 0,0.294317 -0.0212,0.590383 -0.0471,0.657924 -0.0303,0.07887 0.0227,0.141917 0.14817,0.176254 0.16238,0.04445 0.17388,0.06751 0.0683,0.13683 -0.0699,0.04586 -0.1651,0.07825 -0.21166,0.07198 -0.0466,-0.0063 -0.18944,-0.02726 -0.3175,-0.04666 z m 4.61433,-0.06228 c -0.17704,-0.07907 -0.27517,-0.182962 -0.27517,-0.291322 0,-0.260074 0.13618,-0.283958 0.28903,-0.05069 0.22011,0.335931 0.81164,0.269301 0.81164,-0.09142 0,-0.171741 -0.0738,-0.221308 -0.52888,-0.355335 -0.55169,-0.162468 -0.63506,-0.264017 -0.53711,-0.65427 0.0345,-0.137567 0.16737,-0.242856 0.4357,-0.345331 0.36002,-0.137494 0.40566,-0.138063 0.67749,-0.0084 0.32505,0.155006 0.34476,0.206124 0.17079,0.443048 -0.11628,0.158363 -0.12404,0.155525 -0.21317,-0.07796 -0.0744,-0.194889 -0.12949,-0.232399 -0.28149,-0.191656 -0.10395,0.02786 -0.2582,0.05118 -0.34279,0.05182 -0.1167,7.94e-4 -0.14733,0.0557 -0.127,0.227356 0.0236,0.198999 0.0879,0.242269 0.53479,0.359839 l 0.508,0.133638 0.026,0.360067 c 0.0237,0.327043 0.004,0.368376 -0.21167,0.450657 -0.41079,0.156543 -0.65219,0.166859 -0.93621,0.04 z m 2.07433,0.02551 c -0.23241,-0.08586 -0.23283,-0.08752 -0.23283,-0.919737 0,-0.797052 -0.008,-0.835369 -0.1905,-0.871196 l -0.1905,-0.03747 0.18591,-0.06176 c 0.1383,-0.04594 0.1925,-0.140658 0.21166,-0.369877 0.0178,-0.213365 0.0713,-0.316757 0.17393,-0.336201 0.12146,-0.02302 0.14817,0.03409 0.14817,0.316796 0,0.311423 0.0205,0.344874 0.21166,0.344874 0.13289,0 0.21167,0.04787 0.21167,0.128614 0,0.09491 -0.0555,0.114692 -0.21167,0.07549 l -0.21166,-0.05312 v 0.813511 0.813512 h 0.21872 c 0.13733,0 0.20561,0.03939 0.18348,0.105834 -0.0463,0.139184 -0.22131,0.156657 -0.50804,0.05074 z m 1.18534,-0.03566 c -0.18426,-0.09996 -0.23284,-0.186957 -0.23284,-0.416965 0,-0.343852 0.18524,-0.476758 0.762,-0.546722 0.33912,-0.04114 0.38395,-0.07181 0.40779,-0.279011 0.0214,-0.185748 -0.0182,-0.249912 -0.19601,-0.3175 -0.31314,-0.119057 -0.55044,-0.105293 -0.55044,0.03193 0,0.06415 -0.0539,0.161404 -0.11988,0.216125 -0.0957,0.07944 -0.13095,0.06462 -0.1748,-0.07354 -0.077,-0.242557 -0.016,-0.306015 0.40842,-0.424839 0.31714,-0.08879 0.41126,-0.08393 0.63718,0.03289 l 0.26508,0.137078 v 0.759825 c 0,0.703382 0.0126,0.759825 0.16933,0.759825 0.0931,0 0.16933,0.03403 0.16933,0.07561 0,0.141846 -0.27745,0.182494 -0.45642,0.06687 -0.14771,-0.09542 -0.22248,-0.09641 -0.43258,-0.0057 -0.32217,0.139044 -0.37293,0.137819 -0.65616,-0.01582 z m 0.73532,-0.203478 c 0.16706,-0.06352 0.21718,-0.141668 0.21718,-0.338666 0,-0.276972 -0.0776,-0.304068 -0.58209,-0.203179 -0.19901,0.0398 -0.26458,0.09855 -0.26458,0.237066 0,0.346816 0.22825,0.45733 0.62949,0.304779 z m 1.46601,0.275929 c -0.25457,-0.03856 -0.3059,-0.147201 -0.10583,-0.223975 0.0984,-0.03774 0.127,-0.202695 0.127,-0.731454 0,-0.630156 -0.0147,-0.688279 -0.1905,-0.754954 -0.18869,-0.07155 -0.1882,-0.0733 0.0516,-0.18442 0.2128,-0.09861 0.2552,-0.09428 0.35031,0.0358 0.10156,0.138893 0.12624,0.139382 0.40175,0.008 0.27439,-0.130847 0.31368,-0.130426 0.60218,0.0065 l 0.30864,0.146457 v 0.742479 c 0,0.697664 0.0115,0.745713 0.1905,0.796042 0.30951,0.08702 -0.0163,0.224065 -0.38896,0.163594 -0.2731,-0.04431 -0.44748,-0.197403 -0.22487,-0.197403 0.0493,0 0.0847,-0.277908 0.0847,-0.664395 0,-0.607245 -0.0164,-0.671743 -0.1905,-0.749822 -0.12355,-0.0554 -0.27234,-0.05704 -0.42334,-0.0047 -0.22092,0.07664 -0.23283,0.108148 -0.23283,0.615897 0,0.29432 -0.0212,0.590386 -0.0471,0.657924 -0.0303,0.07888 0.0227,0.14192 0.14816,0.176257 0.16238,0.04445 0.17389,0.06751 0.0683,0.136829 -0.0698,0.04585 -0.1651,0.07825 -0.21166,0.07199 -0.0466,-0.0063 -0.18944,-0.02726 -0.3175,-0.04666 z m 2.55252,-0.132712 c -0.25993,-0.174694 -0.29022,-0.237583 -0.31386,-0.65164 -0.0399,-0.69809 0.0223,-0.837436 0.46018,-1.031121 0.23119,-0.102262 0.46705,-0.149966 0.58951,-0.119227 0.19837,0.04979 0.20415,0.03719 0.20415,-0.445439 0,-0.432549 -0.0246,-0.50804 -0.1905,-0.584687 -0.18997,-0.08777 -0.18985,-0.08819 0.0421,-0.149069 0.477,-0.125188 0.48702,-0.09475 0.48702,1.478547 0,1.385547 0.007,1.44199 0.16934,1.44199 0.22189,0 0.21784,0.142526 -0.006,0.213593 -0.1068,0.0339 -0.23098,0.0056 -0.3175,-0.07244 -0.12276,-0.110672 -0.17092,-0.112119 -0.35377,-0.01064 -0.2969,0.164788 -0.44093,0.151731 -0.77064,-0.06987 z m 0.74948,-0.114009 c 0.17581,-0.04712 0.1905,-0.09939 0.1905,-0.678273 0,-0.584502 -0.0139,-0.632492 -0.2036,-0.704628 -0.11198,-0.04257 -0.312,-0.04855 -0.4445,-0.01328 -0.23049,0.06136 -0.24198,0.08838 -0.26583,0.625163 -0.0239,0.538149 -0.0153,0.566261 0.21166,0.689314 0.27591,0.149603 0.26493,0.147849 0.51177,0.0817 z m 1.43933,0.17427 c -0.18425,-0.09996 -0.23283,-0.186957 -0.23283,-0.416965 0,-0.343852 0.18523,-0.476758 0.762,-0.546722 0.33911,-0.04114 0.38394,-0.07181 0.40778,-0.279011 0.0214,-0.185748 -0.0182,-0.249912 -0.19601,-0.3175 -0.31314,-0.119057 -0.55044,-0.105293 -0.55044,0.03193 0,0.06415 -0.0539,0.161404 -0.11988,0.216125 -0.0957,0.07944 -0.13095,0.06462 -0.1748,-0.07354 -0.077,-0.242557 -0.016,-0.306015 0.40842,-0.424839 0.31714,-0.08879 0.41126,-0.08393 0.63718,0.03289 l 0.26508,0.137078 v 0.759825 c 0,0.703382 0.0126,0.759825 0.16933,0.759825 0.0931,0 0.16934,0.03403 0.16934,0.07561 0,0.141846 -0.27746,0.182494 -0.45643,0.06687 -0.14771,-0.09542 -0.22248,-0.09641 -0.43257,-0.0057 -0.32218,0.139044 -0.37294,0.137819 -0.65617,-0.01582 z m 0.73532,-0.203478 c 0.16706,-0.06352 0.21718,-0.141668 0.21718,-0.338666 0,-0.276972 -0.0776,-0.304068 -0.58208,-0.203179 -0.19902,0.0398 -0.26459,0.09855 -0.26459,0.237066 0,0.346816 0.22825,0.45733 0.62949,0.304779 z m 2.31268,0.275929 c -0.2675,-0.04052 -0.28115,-0.07247 -0.10583,-0.247785 0.0902,-0.09019 0.127,-0.310076 0.127,-0.75868 0,-0.577231 -0.0164,-0.63791 -0.1905,-0.703918 -0.18967,-0.07192 -0.18947,-0.07271 0.0446,-0.18124 0.37023,-0.171638 0.44221,-0.0254 0.44221,0.898406 0,0.705411 0.0175,0.799928 0.14817,0.799897 0.0815,-2.2e-5 0.14816,0.03399 0.14816,0.07557 0,0.07651 -0.22033,0.189045 -0.32443,0.165706 -0.0311,-0.007 -0.16134,-0.02856 -0.2894,-0.04796 z m -24.44749,-2.349213 c 0,-0.133373 0.5367,-0.621617 0.63981,-0.582048 0.19384,0.07438 0.14528,0.176305 -0.1938,0.406717 -0.30114,0.204629 -0.44601,0.26158 -0.44601,0.175331 z m 24.21466,-0.02867 c 0,-0.03743 0.12732,-0.191468 0.28294,-0.342304 0.23583,-0.228571 0.29937,-0.254463 0.38152,-0.15548 0.0792,0.09544 0.0352,0.162663 -0.224,0.342302 -0.33654,0.233219 -0.44046,0.269907 -0.44046,0.155482 z m -30.22952,-0.14786 c -0.09,-0.10842 -0.0844,-0.155752 0.032,-0.272142 0.13142,-0.131413 0.15038,-0.131413 0.28179,0 0.11639,0.11639 0.12195,0.163722 0.032,0.272142 -0.0599,0.07219 -0.1377,0.13125 -0.17286,0.13125 -0.0352,0 -0.11295,-0.05906 -0.17286,-0.13125 z m 8.14618,-2.144982 c -0.81301,-0.877349 -0.87445,-0.961937 -0.82933,-1.141719 0.0387,-0.154308 0.16329,-0.207107 0.79016,-0.334936 0.4093,-0.08346 1.06803,-0.259552 1.46385,-0.391309 0.39581,-0.131757 1.46098,-0.477822 2.36703,-0.769032 1.63101,-0.524214 1.65188,-0.533981 2.10103,-0.983123 0.48139,-0.481398 0.63046,-0.532888 0.93176,-0.321848 0.26841,0.188 0.23322,0.462421 -0.11082,0.864363 -0.24445,0.285582 -0.6422,0.519184 -2.18017,1.280421 -1.03464,0.512111 -2.31932,1.180781 -2.85483,1.485933 -1.10349,0.628798 -1.34323,0.673248 -1.67868,0.31125 z m 11.11901,-0.511704 c -0.87823,-0.326041 -3.25254,-1.52788 -3.33953,-1.690416 -0.0492,-0.09195 -0.0895,-0.245887 -0.0895,-0.342082 0,-0.166211 0.0465,-0.174899 0.93628,-0.174899 0.75925,0 1.12557,0.04779 1.93735,0.252731 1.09564,0.276605 1.68399,0.499581 1.85183,0.701813 0.20853,0.251261 0.21971,0.705303 0.0251,1.020152 -0.26746,0.432761 -0.61694,0.494297 -1.32158,0.232701 z m -7.87665,-3.464607 c -0.99211,-0.673906 -1.76824,-0.929489 -3.0559,-1.006311 -0.94491,-0.05638 -1.05786,-0.14014 -1.1148,-0.826798 -0.0361,-0.434939 -0.0218,-0.478569 0.23586,-0.719221 0.54226,-0.506547 0.7111,-0.459087 2.74518,0.771622 l 0.95952,0.580555 0.88702,0.07702 c 0.93748,0.0814 1.4215,0.251613 1.41808,0.498682 -0.006,0.39876 -0.17712,0.83808 -0.39585,1.013405 -0.41379,0.331684 -0.72399,0.259827 -1.67911,-0.388956 z m 5.01915,-0.569151 c -0.23447,-0.23826 0.16258,-0.552021 1.99956,-1.580129 1.06094,-0.593781 1.59303,-0.713907 1.85924,-0.419747 0.0937,0.103526 0.14357,0.265016 0.12688,0.410757 -0.0319,0.27882 -0.0543,0.291024 -1.90872,1.040725 -1.21856,0.49264 -1.94347,0.684044 -2.07696,0.548394 z m -3.57283,-0.878173 c -0.0819,-0.09049 -0.25746,-0.188379 -0.39014,-0.217521 -0.50266,-0.110402 -0.92653,-0.630899 -0.92653,-1.13774 0,-0.235101 0.0246,-0.258102 0.27516,-0.257049 0.43469,0.0018 0.62839,0.0822 0.7287,0.302353 0.0784,0.172138 0.15039,0.203156 0.45482,0.196052 0.58883,-0.01374 0.7817,-0.09721 0.81143,-0.351139 0.0256,-0.218638 0.046,-0.226678 0.635,-0.250652 l 0.60855,-0.02477 0.0272,-0.284401 c 0.0194,-0.203104 -0.0229,-0.331108 -0.14816,-0.447798 -0.0965,-0.08987 -0.17539,-0.214112 -0.17539,-0.276095 0,-0.111138 0.40225,-0.24443 1.05231,-0.348703 0.21836,-0.03503 0.43093,-0.151645 0.61873,-0.339439 0.24579,-0.245793 0.27271,-0.311069 0.19112,-0.46352 -0.11526,-0.215353 -0.53615,-0.481288 -0.88194,-0.557235 -0.36589,-0.08036 -0.72622,0.354681 -0.72622,0.876813 0,0.339408 -0.0224,0.376718 -0.29467,0.490473 -0.16207,0.06772 -0.35695,0.218173 -0.43307,0.334347 -0.13826,0.211004 -0.32921,0.254663 -0.69043,0.15786 -0.23259,-0.06233 -0.23607,-0.159869 -0.0269,-0.755021 l 0.16361,-0.465488 -0.1916,-0.222741 c -0.2736,-0.318077 -1.00503,-0.38033 -1.34212,-0.114228 -0.25814,0.203778 -0.29869,0.475399 -0.10852,0.726827 0.16339,0.216026 0.16083,0.456923 -0.008,0.796317 -0.13488,0.270372 -0.14751,0.275446 -0.52916,0.212542 -0.21505,-0.03544 -0.61809,-0.08756 -0.89565,-0.115809 l -0.50465,-0.05137 -0.10562,-0.366107 c -0.18492,-0.640971 -0.29393,-1.961808 -0.20193,-2.446646 0.10727,-0.565275 0.45216,-1.245885 0.79485,-1.568549 0.43469,-0.409291 1.58527,-1.249031 1.71137,-1.249031 0.12267,0 0.39495,0.25537 0.60385,0.566341 0.0868,0.129153 0.14282,0.557937 0.18491,1.414377 0.0332,0.675969 0.0873,1.255895 0.1201,1.288724 0.0683,0.06831 0.70918,-0.106133 0.77376,-0.210619 0.0235,-0.03805 -0.032,-0.266006 -0.12345,-0.506575 -0.0914,-0.240569 -0.16756,-0.579865 -0.16921,-0.75399 -0.002,-0.174126 -0.0582,-0.545192 -0.12568,-0.824592 -0.0675,-0.2794 -0.12326,-0.650875 -0.12399,-0.8255 -0.001,-0.302055 0.0121,-0.317494 0.27385,-0.317384 0.15134,6.4e-5 0.59901,0.05716 0.99483,0.126884 0.39582,0.06972 0.72748,0.126821 0.73703,0.126884 0.10623,6.88e-4 1.46084,1.7663 1.62405,2.116783 0.27624,0.593215 0.33504,1.519692 0.15169,2.390093 -0.0713,0.338565 -0.15345,0.7595 -0.1825,0.935409 -0.0417,0.252425 -0.22269,0.502256 -0.85876,1.185333 -1.22631,1.31693 -1.5342,1.585164 -1.81952,1.585164 -0.13582,0 -0.32185,-0.04678 -0.4134,-0.103947 -0.13632,-0.08513 -0.21127,-0.07747 -0.41408,0.04233 -0.32252,0.190515 -0.54121,0.18501 -0.72517,-0.01825 z m -12.0688,-6.460632 c 3.4e-4,-0.122686 0.0908,-0.241843 0.254,-0.334729 0.32153,-0.182962 0.32034,-0.344016 -0.008,-1.062045 -0.7185,-1.571845 -1.00867,-2.221817 -1.00867,-2.259378 0,-0.01991 -0.11128,-0.276983 -0.2473,-0.571274 -0.13602,-0.29429 -0.29667,-0.693711 -0.357,-0.8876 l -0.1097,-0.352527 -0.24139,0.124831 c -0.2907,0.150323 -0.59984,0.121426 -0.63424,-0.05928 -0.0563,-0.296038 0.38813,-0.572216 2.08303,-1.294281 1.8421,-0.784777 2.1202,-0.845036 2.9433,-0.637775 0.50236,0.126496 1.00633,0.702374 1.5052,1.719961 0.4617,0.941774 0.69212,1.680464 0.77053,2.470179 0.0706,0.711024 -0.0482,1.015554 -0.64517,1.653811 -0.39139,0.41846 -0.91324,0.647893 -3.14121,1.38106 -1.07511,0.353789 -1.16422,0.362142 -1.16351,0.109051 z m 2.5818,-1.370471 c 0.23283,-0.103807 0.62814,-0.280059 0.87846,-0.391672 l 0.45514,-0.202931 -0.0488,-0.72138 c -0.0908,-1.340746 -0.97034,-3.236881 -1.77031,-3.81638 -0.32624,-0.236326 -0.33055,-0.236949 -0.72566,-0.104724 -1.26518,0.423403 -1.65808,0.6217 -1.69356,0.854732 -0.0275,0.180851 0.33842,1.091104 1.21509,3.022326 0.51188,1.127619 0.63134,1.433182 0.63134,1.614881 0,0.219511 -0.0122,0.222462 1.05834,-0.254852 z m 21.71699,0.65945 c -0.20955,-0.124808 -0.5334,-0.342324 -0.71967,-0.483367 -0.18626,-0.141042 -0.35517,-0.268777 -0.37535,-0.283855 -0.10519,-0.07859 0.21382,-0.236257 0.47802,-0.236257 0.35631,0 0.41654,-0.08602 0.9628,-1.374951 0.19262,-0.45451 0.37972,-0.864482 0.41577,-0.911049 0.036,-0.04657 0.0903,-0.200629 0.12054,-0.34236 0.0444,-0.207986 0.0136,-0.296574 -0.15956,-0.459258 -0.2453,-0.230453 -0.26805,-0.360914 -0.0889,-0.509626 0.17566,-0.145784 1.12185,0.02361 1.28073,0.22928 0.19948,0.258227 0.23402,0.542724 0.0995,0.819558 -0.0701,0.144324 -0.16894,0.357656 -0.21957,0.474073 -0.0506,0.116417 -0.20393,0.459317 -0.34066,0.762 -0.13674,0.302683 -0.33565,0.759883 -0.44203,1.016 -0.10637,0.256116 -0.25028,0.532575 -0.31979,0.614352 -0.14486,0.170414 -0.14896,0.163932 0.22354,0.353435 0.20878,0.106209 0.27367,0.190077 0.254,0.328267 -0.0421,0.296178 -0.67503,0.298211 -1.16941,0.0038 z m -17.65674,-1.648691 c -0.49815,-0.196609 -0.62358,-0.36514 -0.76145,-1.023126 -0.0889,-0.424047 -0.0833,-0.511893 0.0456,-0.719667 0.24788,-0.39968 0.52861,-0.597082 1.0583,-0.744156 0.72738,-0.201966 1.22767,-0.393991 1.22767,-0.471215 0,-0.03669 -0.0447,-0.260112 -0.0992,-0.496498 l -0.0992,-0.429792 h -0.66489 c -0.6358,0 -0.66849,0.0095 -0.74745,0.217178 -0.0454,0.119448 -0.0826,0.329941 -0.0826,0.467762 0,0.193188 -0.0514,0.270129 -0.22444,0.335915 -0.25323,0.09628 -0.45989,-0.04548 -0.72776,-0.499169 -0.14612,-0.247492 -0.14507,-0.253277 0.0889,-0.491895 0.44,-0.448691 0.8724,-0.701316 1.51158,-0.88311 0.2907,-0.08268 0.45284,-0.07518 0.93133,0.04305 0.31865,0.07874 0.63952,0.188484 0.71304,0.243879 0.15187,0.114424 0.36477,0.924908 0.75366,2.869121 l 0.0965,0.482402 0.39633,0.0256 c 0.52136,0.03367 0.56904,0.228266 0.12916,0.527169 -0.37143,0.252393 -0.78327,0.28145 -1.12532,0.07939 -0.22704,-0.134113 -0.24708,-0.130305 -0.60573,0.115093 -0.8533,0.583836 -1.10366,0.632427 -1.81401,0.352063 z m 1.47245,-0.928313 c 0.37853,-0.217068 0.44461,-0.289766 0.40332,-0.443705 -0.0272,-0.101257 -0.0505,-0.279353 -0.0518,-0.39577 -0.005,-0.422286 -0.0865,-0.443276 -0.80782,-0.207809 -0.86984,0.283943 -0.88696,0.299952 -0.77841,0.727624 0.0673,0.265061 0.14897,0.372351 0.35023,0.459961 0.35841,0.156029 0.37133,0.15398 0.88451,-0.140301 z m 10.08829,0.585963 c -0.45055,-0.310466 -0.701,-0.552464 -0.83419,-0.806038 -0.35131,-0.668828 0.31042,-3.244066 0.83359,-3.244066 0.0821,0 0.29354,-0.06028 0.46988,-0.133963 0.47096,-0.196784 1.63047,-0.205349 1.92282,-0.0142 0.31924,0.208726 0.34575,0.191109 0.28491,-0.189335 -0.0663,-0.414742 -0.30518,-0.932498 -0.43019,-0.932498 -0.0509,0 -0.3905,0.1524 -0.75472,0.338666 -0.76487,0.391157 -0.87847,0.408383 -0.97707,0.148167 -0.0806,-0.21274 0.0126,-0.374934 0.28583,-0.49707 0.19723,-0.08818 0.90598,-0.483048 0.95499,-0.532055 0.0179,-0.01788 -0.20795,-0.214707 -0.50183,-0.437393 -0.2939,-0.222686 -0.54904,-0.416017 -0.56699,-0.429624 -0.0179,-0.01361 0.0332,-0.125234 0.11369,-0.248061 0.12147,-0.185378 0.18958,-0.21467 0.40091,-0.172404 0.14003,0.028 0.39915,0.16541 0.57583,0.305345 0.17669,0.139936 0.35931,0.254429 0.40584,0.254429 0.0465,0 0.10652,0.05715 0.13332,0.127 0.0268,0.06985 0.12147,0.127 0.21036,0.127 0.0889,0 0.20905,-0.05715 0.26702,-0.127 0.058,-0.06985 0.14537,-0.127 0.1942,-0.127 0.0488,0 0.162,-0.06624 0.25145,-0.147194 0.15605,-0.141226 0.17283,-0.135804 0.41364,0.133707 0.29051,0.325149 0.25419,0.413634 -0.26613,0.648267 -0.34098,0.153758 -0.40916,0.243299 -0.2569,0.337397 0.0452,0.02796 0.168,0.230233 0.27279,0.449496 0.16564,0.346562 0.19084,0.536964 0.19291,1.456993 0.003,1.271985 -0.2113,2.277072 -0.70101,3.289974 -0.21438,0.443413 -0.85511,0.690085 -1.78365,0.686682 -0.67621,-0.0025 -0.75852,-0.02212 -1.1113,-0.265218 z m 2.10047,-0.980938 c 0.0967,-0.267758 0.24461,-0.824442 0.32869,-1.237075 l 0.15287,-0.750242 -0.29618,-0.251724 c -0.42283,-0.359364 -0.65148,-0.427652 -1.22751,-0.366602 l -0.508,0.05384 -0.14304,0.439818 c -0.0787,0.2419 -0.19022,0.755325 -0.24788,1.140945 l -0.10485,0.701126 0.37135,0.378374 c 0.36605,0.372982 0.37937,0.378374 0.93503,0.378374 h 0.5637 z m -7.93362,0.574113 c -0.15812,-0.09013 -0.39625,-0.26807 -0.52917,-0.395418 l -0.24168,-0.231542 V 38.49183 c 0,-1.649873 -0.002,-1.656633 -0.44999,-1.763845 -0.18479,-0.04419 -0.23234,-0.09902 -0.21167,-0.244051 0.0604,-0.423842 1.16041,-0.652418 1.47404,-0.306302 0.14456,0.15953 0.16404,0.345615 0.18775,1.793863 l 0.0265,1.615868 0.22754,0.197991 c 0.33835,0.294413 0.57544,0.32292 1.10728,0.133137 l 0.47493,-0.169476 0.0233,-1.376596 c 0.0234,-1.381022 -0.0169,-1.610782 -0.28217,-1.610782 -0.0611,0 -0.20583,-0.03601 -0.32158,-0.08002 -0.32952,-0.125281 -0.20132,-0.390905 0.26541,-0.549937 0.51725,-0.176245 0.88867,-0.166505 1.13115,0.02966 0.19753,0.159811 0.20018,0.183519 0.22554,2.020919 l 0.0257,1.859211 0.35533,0.07468 c 0.2626,0.05519 0.36181,0.119827 0.38012,0.247679 0.0296,0.20685 -0.43418,0.461807 -0.84009,0.461807 -0.25305,0 -0.75102,-0.231821 -0.75102,-0.349622 0,-0.03251 -0.20003,0.02032 -0.4445,0.117396 -0.62378,0.247696 -1.46057,0.277606 -1.83266,0.0655 z m 13.73305,-3.10646 c -0.21989,-0.523056 -0.22229,-0.684653 -0.0122,-0.820048 0.29762,-0.191801 0.76501,-0.253404 0.93826,-0.123662 0.17062,0.12778 0.28117,0.812496 0.16014,0.991945 -0.0461,0.06831 -0.27403,0.134975 -0.53281,0.155819 -0.4311,0.03473 -0.45703,0.02516 -0.55339,-0.204054 z"
       id="path3939" />
    <text
       xml:space="preserve"
       style="font-style:normal;font-variant:normal;font-weight:normal;font-stretch:normal;font-size:39.9999px;line-height:1.25;font-family:sans-serif;font-variant-ligatures:normal;font-variant-position:normal;font-variant-caps:normal;font-variant-numeric:normal;font-variant-alternates:normal;font-variant-east-asian:normal;font-feature-settings:normal;font-variation-settings:normal;text-indent:0;text-align:start;text-decoration:none;text-decoration-line:none;text-decoration-style:solid;text-decoration-color:#000000;letter-spacing:normal;word-spacing:normal;text-transform:none;writing-mode:lr-tb;direction:ltr;text-orientation:mixed;dominant-baseline:auto;baseline-shift:baseline;white-space:pre;shape-inside:url(#rect3356);shape-padding:0;shape-margin:0;inline-size:0;opacity:1;vector-effect:none;fill:#ff0000;fill-opacity:1;stroke:none;stroke-width:3.77953;stroke-linecap:butt;stroke-linejoin:miter;stroke-miterlimit:4;stroke-dasharray:none;stroke-dashoffset:0;stroke-opacity:1;stop-color:#000000;stop-opacity:1"
       x="123"
       y="339.5"
       id="text142"
       transform="scale(0.26458333)" />
    <text
       xml:space="preserve"
       style="font-style:normal;font-variant:normal;font-weight:normal;font-stretch:normal;font-size:21.3333px;line-height:2.25;font-family:sans-serif;font-variant-ligatures:normal;font-variant-position:normal;font-variant-caps:normal;font-variant-numeric:normal;font-variant-alternates:normal;font-variant-east-asian:normal;font-feature-settings:normal;font-variation-settings:normal;text-indent:0;text-align:start;text-decoration:none;text-decoration-line:none;text-decoration-style:solid;text-decoration-color:#000000;letter-spacing:normal;word-spacing:normal;text-transform:none;writing-mode:lr-tb;direction:ltr;text-orientation:mixed;dominant-baseline:auto;baseline-shift:baseline;white-space:pre;shape-inside:url(#rect3356);shape-padding:0;shape-margin:0;inline-size:0;opacity:1;vector-effect:none;fill:#ff0000;fill-opacity:1;stroke:none;stroke-width:3.77953;stroke-linecap:butt;stroke-linejoin:miter;stroke-miterlimit:4;stroke-dasharray:none;stroke-dashoffset:0;stroke-opacity:1;stop-color:#000000;stop-opacity:1"
       x="124"
       y="364.5"
       id="text146"
       transform="matrix(0.46859973,0,0,0.46859973,39.90533,95.371666)"><tspan
         x="0"
         y="0"><tspan
           style="font-style:normal;font-variant:normal;font-weight:normal;font-stretch:normal;font-family:'HoloLens MDL2 Assets';-inkscape-font-specification:'HoloLens MDL2 Assets'">lfur H.</tspan></tspan></text>
    <rect
       style="fill:none;fill-rule:evenodd;stroke:url(#linearGradient991);stroke-width:0.264999;stroke-miterlimit:4;stroke-dasharray:none"
       id="rect985"
       width="6.5481033"
       height="10.289877"
       x="179.32448"
       y="0.1324995" />
    <rect
       style="fill:none;fill-rule:evenodd;stroke:url(#linearGradient999);stroke-width:0.159538;stroke-miterlimit:4;stroke-dasharray:none"
       id="rect993"
       width="3.840462"
       height="7.8404622"
       x="184.8844"
       y="49.245129" />
    <rect
       style="fill:none;fill-rule:evenodd;stroke-width:0.264999;stroke-miterlimit:4;stroke-dasharray:none"
       id="rect1001"
       width="1.8708867"
       height="1.8708867"
       x="180.63411"
       y="46.023811" />
  </g>
</svg>
