<?xml version="1.0" encoding="UTF-8" standalone="no"?>
<svg
   xmlns:dc="http://purl.org/dc/elements/1.1/"
   xmlns:cc="http://creativecommons.org/ns#"
   xmlns:rdf="http://www.w3.org/1999/02/22-rdf-syntax-ns#"
   xmlns:svg="http://www.w3.org/2000/svg"
   xmlns="http://www.w3.org/2000/svg"
   xmlns:sodipodi="http://sodipodi.sourceforge.net/DTD/sodipodi-0.dtd"
   xmlns:inkscape="http://www.inkscape.org/namespaces/inkscape"
   version="1.1"
   id="svg3366"
   width="135.67999"
   height="141.75999"
   viewBox="0 0 135.67999 141.75999"
   sodipodi:docname="makhno.svg"
   inkscape:version="1.0.2 (e86c870879, 2021-01-15)">
  <metadata
     id="metadata3372">
    <rdf:RDF>
      <cc:Work
         rdf:about="">
        <dc:format>image/svg+xml</dc:format>
        <dc:type
           rdf:resource="http://purl.org/dc/dcmitype/StillImage" />
        <dc:title></dc:title>
      </cc:Work>
    </rdf:RDF>
  </metadata>
  <defs
     id="defs3370" />
  <sodipodi:namedview
     pagecolor="#ffffff"
     bordercolor="#666666"
     borderopacity="1"
     objecttolerance="10"
     gridtolerance="10"
     guidetolerance="10"
     inkscape:pageopacity="0"
     inkscape:pageshadow="2"
     inkscape:window-width="1360"
     inkscape:window-height="705"
     id="namedview3368"
     showgrid="false"
     inkscape:zoom="5.3671482"
     inkscape:cx="69.022873"
     inkscape:cy="41.15078"
     inkscape:window-x="-8"
     inkscape:window-y="-8"
     inkscape:window-maximized="1"
     inkscape:current-layer="g3374" />
  <g
     inkscape:groupmode="layer"
     inkscape:label="Image"
     id="g3374">
    <path
       style="color:#000000;font-style:normal;font-variant:normal;font-weight:normal;font-stretch:normal;font-size:medium;line-height:normal;font-family:sans-serif;font-variant-ligatures:normal;font-variant-position:normal;font-variant-caps:normal;font-variant-numeric:normal;font-variant-alternates:normal;font-variant-east-asian:normal;font-feature-settings:normal;font-variation-settings:normal;text-indent:0;text-align:start;text-decoration:none;text-decoration-line:none;text-decoration-style:solid;text-decoration-color:#000000;letter-spacing:normal;word-spacing:normal;text-transform:none;writing-mode:lr-tb;direction:ltr;text-orientation:mixed;dominant-baseline:auto;baseline-shift:baseline;text-anchor:start;white-space:normal;shape-padding:0;shape-margin:0;inline-size:0;clip-rule:nonzero;display:inline;overflow:visible;visibility:visible;opacity:1;isolation:auto;mix-blend-mode:normal;color-interpolation:sRGB;color-interpolation-filters:linearRGB;solid-color:#000000;solid-opacity:1;vector-effect:none;fill:#ff0000;fill-opacity:1;fill-rule:nonzero;stroke:none;stroke-width:0.32;stroke-linecap:butt;stroke-linejoin:miter;stroke-miterlimit:4;stroke-dasharray:none;stroke-dashoffset:0;stroke-opacity:1;color-rendering:auto;image-rendering:auto;shape-rendering:auto;text-rendering:auto;enable-background:accumulate;stop-color:#000000;stop-opacity:1"
       d="m 19.844746,129.89346 c -1.198884,-0.73097 -1.301857,-1.26734 -0.4,-2.08351 0.352,-0.31856 0.64,-0.83637 0.64,-1.15071 0,-0.31433 0.151114,-0.66491 0.335808,-0.77906 0.203375,-0.12569 0.01408,-0.50571 -0.48,-0.9636 -0.814991,-0.75531 -1.01082,-1.78669 -0.617664,-3.25306 0.225099,-0.83957 2.602037,-1.86359 3.594531,-1.54859 0.372242,0.11815 1.089799,-0.0167 1.66107,-0.31208 0.553151,-0.28605 1.082138,-0.44368 1.175525,-0.35029 0.359448,0.35944 -0.240694,1.15739 -0.870486,1.15739 -0.554649,0 -0.607877,0.0998 -0.330043,0.61897 0.454171,0.84862 0.416484,2.66489 -0.06874,3.31291 -0.22,0.29381 -0.965415,0.64958 -1.656479,0.7906 -1.657871,0.3383 -1.79319,0.90906 -0.277446,1.17024 3.115635,0.53685 2.973925,0.44969 2.973925,1.82904 0,1.14775 -0.107536,1.31583 -1.109722,1.73457 -1.542938,0.64468 -3.340992,0.57669 -4.570279,-0.17282 z m 4.56,-1.27451 c 0,-0.84506 -0.739095,-1.19851 -2.628741,-1.2571 -0.73606,-0.0228 -1.130362,0.15798 -1.385927,0.63551 -0.408516,0.76332 -0.417946,0.7461 0.736818,1.3452 0.55012,0.28541 1.304077,0.37736 2.071398,0.25264 1.011735,-0.16445 1.206452,-0.32202 1.206452,-0.97625 z m -0.863631,-5.67879 c 0.08992,-1.55804 0.04173,-1.68351 -0.72,-1.87469 -0.449003,-0.1127 -1.176369,-0.11455 -1.616369,-0.004 -0.697482,0.17506 -0.8,0.37634 -0.8,1.57069 0,1.68897 0.468374,2.19492 1.918629,2.07254 1.112295,-0.0939 1.122151,-0.10815 1.21774,-1.76443 z m 11.754952,7.28811 c -0.102548,-0.16592 0.428956,-0.57702 1.181116,-0.91354 0.752157,-0.33653 1.636624,-0.91496 1.965479,-1.28542 0.592006,-0.66689 0.586502,-0.67899 -0.556756,-1.22417 -1.258015,-0.59991 -1.266127,-0.61583 -1.833027,-3.59825 -0.28808,-1.51558 -0.540646,-2.08289 -0.97824,-2.19732 -0.851103,-0.22257 -0.725203,-0.61628 0.277562,-0.86795 1.171677,-0.29408 1.51889,0.25617 1.98503,3.14577 0.325239,2.01614 0.494659,2.40688 1.17873,2.71856 0.439395,0.2002 0.848486,0.364 0.909094,0.364 0.229767,0 1.072352,-2.45604 1.289043,-3.75739 0.213347,-1.28128 0.175123,-1.37743 -0.681667,-1.71477 -0.899821,-0.35428 -0.901542,-0.36023 -0.198669,-0.68661 0.54072,-0.25108 0.901517,-0.2031 1.52,0.20215 0.97536,0.63908 0.986138,0.84246 0.182461,3.44291 -0.719981,2.32965 -2.222816,4.90487 -3.473507,5.95212 -0.873017,0.73101 -2.428473,0.96709 -2.766649,0.41991 z M 5.7847714,127.13239 c -1.048125,-0.51686 -1.152596,-0.77959 -1.87834,-4.72373 -0.150934,-0.82027 -0.430776,-1.29422 -0.825045,-1.39733 -0.605261,-0.15828 -0.841632,-0.72138 -0.302811,-0.72138 0.161605,0 0.503038,-0.0803 0.75874,-0.1784 0.821113,-0.31509 1.401871,0.70835 1.799035,3.17035 0.392541,2.43335 0.913671,3.30799 1.774209,2.97778 0.561168,-0.21534 1.386611,-2.07442 1.64865,-3.71313 0.167931,-1.05018 0.09596,-1.20825 -0.723997,-1.58999 -0.904529,-0.42113 -0.905842,-0.42601 -0.201449,-0.74925 0.541668,-0.24856 0.908919,-0.19438 1.555952,0.22958 0.7547926,0.49456 0.8247446,0.6937 0.6429726,1.83044 -0.3212076,2.00872 -2.2217236,5.40181 -3.0107986,5.37534 -0.119428,-0.004 -0.676131,-0.23363 -1.237118,-0.51028 z m 8.0051706,0.0511 c -1.310704,-0.57015 -1.705196,-1.3506 -1.705196,-3.37352 0,-2.14711 0.343546,-2.71385 2.037131,-3.36063 1.278049,-0.48809 1.490788,-0.49171 2.363999,-0.0402 1.195257,0.61809 1.56938,2.01978 0.760244,2.84833 -0.316655,0.32425 -1.267379,0.65201 -2.217811,0.76457 -1.473541,0.17452 -1.663563,0.28238 -1.663563,0.94424 0,1.02981 1.562845,1.81964 3.048915,1.54086 1.359862,-0.25512 1.425852,0.004 0.166977,0.65456 -1.140086,0.58957 -1.479253,0.59221 -2.790696,0.0217 z m 1.774805,-3.89352 c 0.778092,-0.15562 0.999999,-0.36615 0.999999,-0.94874 0,-0.95936 -0.918664,-1.45254 -2.111493,-1.13354 -0.927453,0.24803 -1.299776,0.95016 -0.965614,1.82097 0.19553,0.50955 0.588647,0.559 2.077108,0.26131 z m 15.639998,4.1308 c -1.011029,-0.15316 -1.062604,-0.27391 -0.4,-0.93651 0.346272,-0.34628 0.48,-1.18972 0.48,-3.02746 0,-2.34155 -0.05819,-2.57116 -0.72,-2.8408 l -0.72,-0.29335 0.689264,-0.20562 c 0.604496,-0.18034 0.65369,-0.32967 0.4,-1.21423 -0.530887,-1.8511 -0.373819,-2.42286 0.82226,-2.99323 1.3279,-0.63323 2.728476,-0.20479 2.728476,0.83466 0,0.91689 -0.556349,1.111 -1.026509,0.35816 -0.424486,-0.67971 -1.359148,-0.8734 -1.683347,-0.34883 -0.103193,0.16697 -0.02259,0.95897 0.179104,1.76 0.329037,1.30671 0.461498,1.45641 1.288739,1.45641 0.507108,0 0.922013,0.144 0.922013,0.32 0,0.176 -0.36,0.32 -0.8,0.32 -0.779369,0 -0.800112,0.0598 -0.804368,2.32 -0.0026,1.276 -0.08601,2.62417 -0.185798,2.99593 -0.138595,0.51636 -0.0053,0.72411 0.564368,0.87999 0.619299,0.16945 0.664384,0.25751 0.265798,0.51917 -0.264,0.17331 -0.624,0.29574 -0.8,0.27207 -0.176,-0.0237 -0.716,-0.10304 -1.2,-0.17636 z m 13.439999,0 c -1.01103,-0.15316 -1.062604,-0.27391 -0.4,-0.93651 0.340887,-0.34089 0.48,-1.17194 0.48,-2.86746 0,-2.18165 -0.06206,-2.41098 -0.72,-2.66047 -0.713161,-0.27042 -0.711305,-0.27704 0.195056,-0.69702 0.812052,-0.37628 0.963786,-0.35737 1.347959,0.16802 0.411148,0.56228 0.474784,0.56459 1.266358,0.0459 0.941702,-0.61703 1.750627,-0.24875 1.750627,0.79701 0,0.86133 -0.619561,1.08875 -1.121734,0.41175 -0.747683,-1.008 -1.343965,0.0381 -1.517456,2.66228 -0.140643,2.12733 -0.102518,2.30785 0.523753,2.47999 0.568349,0.15623 0.599335,0.23562 0.195437,0.50077 -0.264,0.17331 -0.624,0.29574 -0.8,0.27207 -0.176,-0.0237 -0.716,-0.10304 -1.2,-0.17636 z m 6.08,0 c -1.01103,-0.15316 -1.062605,-0.27391 -0.4,-0.93651 0.340886,-0.34089 0.48,-1.17194 0.48,-2.86746 0,-2.18165 -0.06206,-2.41098 -0.72,-2.66047 -0.716838,-0.27181 -0.716099,-0.27482 0.168682,-0.685 1.399276,-0.64871 1.671318,-0.096 1.671318,3.39554 0,2.66613 0.06617,3.02336 0.56,3.02324 0.308,-8e-5 0.56,0.12846 0.56,0.28562 0,0.28917 -0.832749,0.71451 -1.226173,0.6263 -0.117603,-0.0264 -0.609827,-0.10794 -1.093827,-0.18126 z m 4.8,0 c -1.011031,-0.15316 -1.062605,-0.27391 -0.4,-0.93651 0.340886,-0.34089 0.48,-1.17194 0.48,-2.86746 0,-2.18165 -0.06206,-2.41098 -0.72,-2.66047 -0.713162,-0.27042 -0.711306,-0.27704 0.195056,-0.69702 0.812051,-0.37628 0.963785,-0.35737 1.347958,0.16802 0.411149,0.56228 0.474784,0.56459 1.266358,0.0459 0.941703,-0.61703 1.750627,-0.24875 1.750627,0.79701 0,0.86133 -0.619561,1.08875 -1.121734,0.41175 -0.747683,-1.008 -1.343965,0.0381 -1.517456,2.66228 -0.140643,2.12733 -0.102518,2.30785 0.523754,2.47999 0.568348,0.15623 0.599334,0.23562 0.195436,0.50077 -0.264,0.17331 -0.624,0.29574 -0.799999,0.27207 -0.176,-0.0237 -0.716,-0.10304 -1.2,-0.17636 z m 9.279999,0 c -1.01103,-0.15316 -1.062605,-0.27391 -0.4,-0.93651 0.346272,-0.34628 0.48,-1.18972 0.48,-3.02746 0,-2.34155 -0.0582,-2.57116 -0.72,-2.8408 l -0.72,-0.29335 0.689264,-0.20562 c 0.604496,-0.18034 0.65369,-0.32967 0.4,-1.21423 -0.530886,-1.8511 -0.373821,-2.42286 0.822259,-2.99323 1.327901,-0.63323 2.728477,-0.20479 2.728477,0.83466 0,0.91689 -0.556349,1.111 -1.026509,0.35816 -0.424486,-0.67971 -1.359149,-0.8734 -1.683347,-0.34883 -0.103194,0.16697 -0.02259,0.95897 0.179104,1.76 0.329037,1.30671 0.461497,1.45641 1.288739,1.45641 0.507107,0 0.922013,0.144 0.922013,0.32 0,0.176 -0.36,0.32 -0.8,0.32 -0.77937,0 -0.800112,0.0598 -0.804368,2.32 -0.0026,1.276 -0.08601,2.62417 -0.185799,2.99593 -0.138595,0.51636 -0.0053,0.72411 0.564368,0.87999 0.6193,0.16945 0.664384,0.25751 0.265799,0.51917 -0.264,0.17331 -0.624,0.29574 -0.8,0.27207 -0.176,-0.0237 -0.716,-0.10304 -1.2,-0.17636 z m 5.12,0 c -1.011031,-0.15316 -1.062605,-0.27391 -0.4,-0.93651 0.340886,-0.34089 0.48,-1.17194 0.48,-2.86746 0,-2.18165 -0.06206,-2.41098 -0.72,-2.66047 -0.713162,-0.27042 -0.711306,-0.27704 0.195056,-0.69702 0.812051,-0.37628 0.963785,-0.35737 1.347958,0.16802 0.411149,0.56228 0.474784,0.56459 1.266358,0.0459 0.941703,-0.61703 1.750627,-0.24875 1.750627,0.79701 0,0.86133 -0.619561,1.08875 -1.121734,0.41175 -0.747683,-1.008 -1.343965,0.0381 -1.517456,2.66228 -0.140643,2.12733 -0.102518,2.30785 0.523754,2.47999 0.568348,0.15623 0.599334,0.23562 0.195436,0.50077 -0.264,0.17331 -0.624,0.29574 -0.8,0.27207 -0.176,-0.0237 -0.716,-0.10304 -1.199999,-0.17636 z m 6.905196,-0.23728 c -1.310704,-0.57015 -1.705197,-1.3506 -1.705197,-3.37352 0,-2.14711 0.343546,-2.71385 2.03713,-3.36063 1.278051,-0.48809 1.49079,-0.49171 2.363999,-0.0402 1.195258,0.61809 1.56938,2.01978 0.760244,2.84833 -0.316656,0.32425 -1.26738,0.65201 -2.217811,0.76457 -1.47354,0.17452 -1.663562,0.28238 -1.663562,0.94424 0,1.02981 1.562845,1.81964 3.048915,1.54086 1.359862,-0.25512 1.42585,0.004 0.166976,0.65456 -1.140086,0.58957 -1.479251,0.59221 -2.790694,0.0217 z m 1.774803,-3.89352 c 0.778093,-0.15562 1,-0.36615 1,-0.94874 0,-0.95936 -0.918666,-1.45254 -2.111491,-1.13354 -0.927456,0.24803 -1.299779,0.95016 -0.965616,1.82097 0.195529,0.50955 0.588649,0.559 2.077107,0.26131 z m 4.440001,4.1308 c -0.81522,-0.1235 -1.28058,-0.7308 -0.56,-0.7308 0.19987,0 0.32,-1.9037 0.32,-5.0711 0,-4.94702 -0.0176,-5.07924 -0.72,-5.40374 -0.71797,-0.33171 -0.71752,-0.3333 0.15928,-0.56341 1.80155,-0.47282 1.84071,-0.35472 1.84071,5.55089 0,5.34139 0.01,5.41532 0.72,5.61003 0.60063,0.1646 0.64042,0.24956 0.24,0.51242 -0.264,0.17331 -0.624,0.29574 -0.8,0.27207 -0.176,-0.0237 -0.71599,-0.10304 -1.19999,-0.17636 z m 4.63999,-0.2354 c -0.66912,-0.29886 -1.04,-0.69151 -1.04,-1.10107 0,-0.98296 0.5147,-1.07322 1.09238,-0.19158 0.83191,1.26965 3.06762,1.01782 3.06762,-0.34554 0,-0.64909 -0.27884,-0.83643 -1.99893,-1.34299 -2.08512,-0.61405 -2.4002,-0.99787 -2.03001,-2.47283 0.1305,-0.51994 0.63257,-0.91788 1.64673,-1.30519 1.36071,-0.51966 1.5332,-0.52181 2.5606,-0.0319 1.228544,0.58584 1.303024,0.77905 0.64552,1.67451 -0.43948,0.59854 -0.46883,0.58781 -0.8057,-0.29467 -0.28119,-0.73659 -0.48941,-0.87836 -1.06391,-0.72437 -0.39286,0.10531 -0.97586,0.19343 -1.29555,0.19583 -0.4411,0.003 -0.55684,0.21051 -0.48,0.8593 0.0891,0.75213 0.33213,0.91567 2.02125,1.36003 l 1.920005,0.50509 0.0984,1.36088 c 0.0894,1.23607 0.016,1.39229 -0.800004,1.70326 -1.55261,0.59167 -2.46498,0.63066 -3.53844,0.15121 z m 7.200004,0.2354 c -1.01103,-0.15316 -1.0626,-0.27391 -0.4,-0.93651 0.34089,-0.34089 0.48,-1.17194 0.48,-2.86746 0,-2.18165 -0.0621,-2.41098 -0.72,-2.66047 -0.71683,-0.27181 -0.71609,-0.27482 0.16869,-0.685 1.39927,-0.64871 1.67131,-0.096 1.67131,3.39554 0,2.66613 0.0662,3.02336 0.56,3.02324 0.308,-8e-5 0.56,0.12846 0.56,0.28562 0,0.28917 -0.83274,0.71451 -1.22617,0.6263 -0.1176,-0.0264 -0.60983,-0.10794 -1.09383,-0.18126 z m 7.999983,-0.27383 c -0.69639,-0.3778 -0.88,-0.70661 -0.88,-1.57593 0,-1.2996 0.70011,-1.80192 2.88,-2.06636 1.2817,-0.15547 1.45113,-0.2714 1.54124,-1.05452 0.0808,-0.70204 -0.0689,-0.94455 -0.74083,-1.2 -1.18352,-0.44998 -2.08041,-0.39796 -2.08041,0.12066 0,0.24245 -0.20389,0.61003 -0.45309,0.81685 -0.36177,0.30024 -0.49492,0.24423 -0.66065,-0.27796 -0.29097,-0.91674 -0.0604,-1.15658 1.54363,-1.60568 1.19863,-0.33559 1.55438,-0.31723 2.40825,0.12432 l 1.00186,0.51809 v 2.87178 c 0,2.65845 0.0475,2.87178 0.64,2.87178 0.352,0 0.64,0.1286 0.64,0.28576 0,0.53611 -1.04864,0.68975 -1.72509,0.25275 -0.55826,-0.36065 -0.84084,-0.36439 -1.63491,-0.0217 -1.21767,0.52552 -1.40953,0.52089 -2.48,-0.0598 z m 2.77917,-0.76905 c 0.63141,-0.24006 0.82083,-0.53544 0.82083,-1.28 0,-1.04682 -0.2934,-1.14924 -2.2,-0.76792 -0.75218,0.15044 -1,0.37248 -1,0.896 0,1.3108 0.86268,1.72849 2.37917,1.15192 z m 6.36603,0.8056 c -1.31071,-0.57015 -1.7052,-1.3506 -1.7052,-3.37352 0,-2.1584 0.34262,-2.7135 2.08577,-3.37921 1.15181,-0.43988 1.61698,-0.48025 2.24365,-0.19472 0.43482,0.19811 0.79004,0.2553 0.78938,0.12707 -0.002,-0.34606 -1.23948,-2.31314 -1.45545,-2.31314 -0.10233,0 -0.68045,0.37709 -1.2847,0.83798 -1.29876,0.99061 -1.44655,0.68017 -0.26388,-0.55427 l 0.83477,-0.87131 -0.99477,-0.51442 c -0.96743,-0.50028 -1.33666,-1.13798 -0.65888,-1.13798 0.18474,0 0.77171,0.22538 1.30438,0.50083 0.88419,0.45723 1.03843,0.45501 1.77188,-0.0256 0.94429,-0.61873 1.41496,-0.36523 0.68227,0.36747 -0.46332,0.46331 -0.44263,0.60305 0.23766,1.60552 0.88435,1.30316 1.27098,3.87685 0.95833,6.37924 -0.21408,1.71345 -0.27858,1.81258 -1.55687,2.39298 -1.58114,0.7179 -1.67838,0.72288 -2.98834,0.15305 z m 3.16669,-1.23889 c 0.13107,-0.20605 0.24051,-1.25716 0.24321,-2.33581 0.005,-1.87175 -0.0381,-1.979 -0.93884,-2.35208 -0.64166,-0.26579 -1.23062,-0.29566 -1.84,-0.0933 -0.84672,0.28114 -0.90147,0.41459 -0.99048,2.41442 -0.0903,2.02855 -0.0569,2.13736 0.8,2.60921 0.94193,0.51865 2.31993,0.39612 2.72611,-0.24242 z m 4.32811,1.47617 c -1.01103,-0.15316 -1.06261,-0.27391 -0.4,-0.93651 0.34088,-0.34089 0.48,-1.17194 0.48,-2.86746 0,-2.18165 -0.0621,-2.41098 -0.72,-2.66047 -0.71316,-0.27042 -0.71131,-0.27704 0.19505,-0.69702 0.81206,-0.37628 0.96379,-0.35737 1.34796,0.16802 0.41115,0.56228 0.47479,0.56459 1.26636,0.0459 0.9417,-0.61703 1.75063,-0.24875 1.75063,0.79701 0,0.86133 -0.61956,1.08875 -1.12174,0.41175 -0.74768,-1.008 -1.34396,0.0381 -1.51745,2.66228 -0.14065,2.12733 -0.10252,2.30785 0.52375,2.47999 0.56835,0.15623 0.59934,0.23562 0.19544,0.50077 -0.264,0.17331 -0.624,0.29574 -0.8,0.27207 -0.176,-0.0237 -0.716,-0.10304 -1.2,-0.17636 z m 6.08,-0.27383 c -0.69639,-0.3778 -0.88,-0.70661 -0.88,-1.57593 0,-1.2996 0.70011,-1.80192 2.88,-2.06636 1.2817,-0.15547 1.45113,-0.2714 1.54124,-1.05452 0.0808,-0.70204 -0.0689,-0.94455 -0.74083,-1.2 -1.18352,-0.44998 -2.08041,-0.39796 -2.08041,0.12066 0,0.24245 -0.20389,0.61003 -0.45309,0.81685 -0.36178,0.30024 -0.49492,0.24423 -0.66066,-0.27796 -0.29096,-0.91674 -0.0604,-1.15658 1.54364,-1.60568 1.19863,-0.33559 1.55438,-0.31723 2.40824,0.12432 l 1.00187,0.51809 v 2.87178 c 0,2.65845 0.0475,2.87178 0.64,2.87178 0.352,0 0.64,0.1286 0.64,0.28576 0,0.53611 -1.04865,0.68975 -1.72509,0.25275 -0.55826,-0.36065 -0.84084,-0.36439 -1.63491,-0.0217 -1.21768,0.52552 -1.40953,0.52089 -2.48,-0.0598 z m 2.77917,-0.76905 c 0.63141,-0.24006 0.82083,-0.53544 0.82083,-1.28 0,-1.04682 -0.2934,-1.14924 -2.2,-0.76792 -0.75219,0.15044 -1,0.37248 -1,0.896 0,1.3108 0.86268,1.72849 2.37917,1.15192 z m -77.912474,-8.50398 c -0.34009,-0.40978 -0.319078,-0.58867 0.120816,-1.02857 0.496682,-0.49668 0.568342,-0.49668 1.065024,0 0.439894,0.4399 0.460905,0.61879 0.120816,1.02857 -0.226432,0.27284 -0.520429,0.49606 -0.653328,0.49606 -0.132899,0 -0.426896,-0.22322 -0.653328,-0.49606 z m 44.160001,0 c -0.34009,-0.40978 -0.31908,-0.58867 0.12081,-1.02857 0.49668,-0.49668 0.56834,-0.49668 1.06503,0 0.43989,0.4399 0.4609,0.61879 0.12081,1.02857 -0.22643,0.27284 -0.52043,0.49606 -0.65333,0.49606 -0.1329,0 -0.42689,-0.22322 -0.65332,-0.49606 z M 26.028143,105.92344 c -0.551725,-0.21614 -0.560142,-0.26322 -0.08,-0.44747 0.477846,-0.18336 0.536603,-0.91996 0.536603,-6.727051 0,-6.45078 -0.0078,-6.52474 -0.72,-6.85379 -0.717968,-0.331712 -0.717518,-0.333302 0.159284,-0.563412 1.625163,-0.42653 1.840716,-0.10939 1.840716,2.708212 0,1.41352 0.07915,2.57004 0.175891,2.57004 0.09674,0 0.615527,-0.22734 1.152861,-0.50521 0.81271,-0.42027 1.137435,-0.43874 1.931363,-0.10989 1.463622,0.60625 1.859884,1.17682 1.859884,2.67796 0,2.753261 -0.289689,3.399721 -1.828476,4.080401 -1.122952,0.49674 -1.60554,0.55777 -2.352169,0.2975 l -0.939354,-0.32746 v 1.42335 c 0,1.22362 0.09246,1.42335 0.658885,1.42335 0.362387,0 0.569889,0.144 0.461115,0.32 -0.227879,0.36872 -1.949338,0.38889 -2.856603,0.0335 z m 4.75577,-3.86555 c 0.751232,-0.28561 0.820416,-0.46876 0.815933,-2.160001 -0.0054,-2.03057 -0.144054,-2.3779 -1.163526,-2.91437 -0.500655,-0.26346 -0.958881,-0.26799 -1.68,-0.0166 -0.980205,0.34171 -0.991574,0.37112 -0.991574,2.56468 0,2.002111 0.07038,2.247301 0.72,2.508411 0.958466,0.38526 1.325415,0.38811 2.299167,0.0179 z m -24.0591656,1.0406 c -1.003731,-0.12456 -1.498922,-0.72852 -0.597322,-0.72852 0.66096,0 0.828128,-1.0473 0.832952,-5.218401 l 0.0044,-3.7784 -1.36,0.0984 c -1.278917,0.0925 -1.369539,0.16366 -1.52,1.19296 -0.156356,1.06964 -0.96,1.81645 -0.96,0.89211 0,-0.25667 -0.08426,-0.88797 -0.187244,-1.40289 -0.263193,-1.31597 0.761423,-1.70378 4.501469,-1.70378 3.7680706,0 4.6457736,0.29584 4.6457736,1.56591 0,2.15726 -0.841554,2.64752 -1.157117,0.67409 -0.197355,-1.23419 -0.248421,-1.28 -1.4269126,-1.28 h -1.222234 l -0.09687,4.48052 c -0.09647,4.461961 -0.09389,4.480521 0.623132,4.480001 0.396,-2.8e-4 0.72,0.12808 0.72,0.28525 0,0.3264 -0.829605,0.69927 -1.386171,0.62302 -0.205606,-0.0282 -0.841829,-0.10929 -1.413828,-0.18027 z m 7.5199986,0.002 c -1.01103,-0.15316 -1.062604,-0.27391 -0.4,-0.93652 0.340884,-0.34088 0.48,-1.17194 0.48,-2.867451 0,-2.18166 -0.06207,-2.41099 -0.72,-2.66047 -0.716839,-0.27182 -0.716099,-0.27483 0.16868,-0.68501 1.399279,-0.64866 1.671321,-0.096 1.671321,3.3956 0,2.666121 0.06617,3.023351 0.56,3.023231 0.307999,-8e-5 0.559999,0.12846 0.559999,0.28563 0,0.28916 -0.832749,0.7145 -1.226171,0.62629 -0.117606,-0.0264 -0.609829,-0.10794 -1.093829,-0.18126 z m 4.8,0 c -0.815216,-0.12345 -1.280583,-0.73076 -0.56,-0.73076 0.199872,0 0.32,-1.9037 0.32,-5.071101 0,-4.94702 -0.01762,-5.07924 -0.72,-5.40374 -0.717967,-0.331712 -0.717517,-0.333302 0.159285,-0.563412 1.801553,-0.47282 1.840715,-0.35472 1.840715,5.550882 0,5.341401 0.0095,5.415331 0.72,5.610041 0.600622,0.1646 0.640415,0.24956 0.24,0.51242 -0.264,0.17331 -0.624,0.29574 -0.8,0.27207 -0.176,-0.0237 -0.716,-0.10304 -1.2,-0.17636 z m 16.639999,-0.27383 c -0.69639,-0.3778 -0.88,-0.70662 -0.88,-1.57593 0,-1.299611 0.700109,-1.801931 2.88,-2.066361 1.281702,-0.15548 1.451129,-0.2714 1.541241,-1.05453 0.08078,-0.70204 -0.06893,-0.94454 -0.740832,-1.2 -1.183519,-0.44997 -2.080409,-0.39795 -2.080409,0.12066 0,0.24245 -0.203891,0.61003 -0.453088,0.81685 -0.361776,0.30025 -0.494922,0.24423 -0.660656,-0.27795 -0.290963,-0.91675 -0.06039,-1.15659 1.543635,-1.60569 1.19863,-0.33559 1.554378,-0.31723 2.408246,0.12433 l 1.001863,0.51808 v 2.87178 c 0,2.658451 0.04754,2.871791 0.64,2.871791 0.352,0 0.64,0.12859 0.64,0.28576 0,0.53611 -1.048643,0.68975 -1.725088,0.25275 -0.558259,-0.36065 -0.840842,-0.3644 -1.634912,-0.0217 -1.217674,0.52552 -1.409526,0.52089 -2.48,-0.0598 z m 2.779168,-0.76905 c 0.631411,-0.24007 0.820832,-0.53545 0.820832,-1.28 0,-1.046831 -0.293402,-1.149241 -2.2,-0.76792 -0.752182,0.15043 -1,0.37248 -1,0.896 0,1.3108 0.862685,1.72848 2.379168,1.15192 z m 8.900831,0.80747 c -0.669123,-0.29885 -1.04,-0.6915 -1.04,-1.10106 0,-0.98296 0.514698,-1.07323 1.092375,-0.19159 0.83191,1.26966 3.067625,1.01783 3.067625,-0.34553 0,-0.6491 -0.278842,-0.83644 -1.998934,-1.342991 -2.085117,-0.61406 -2.400202,-0.99787 -2.030007,-2.47284 0.130496,-0.51994 0.632564,-0.91788 1.646727,-1.30519 1.360713,-0.51966 1.533203,-0.52181 2.560604,-0.0319 1.228535,0.58585 1.303015,0.77905 0.645514,1.67451 -0.439482,0.59854 -0.468826,0.58781 -0.805702,-0.29466 -0.281184,-0.7366 -0.489402,-0.87837 -1.063904,-0.72438 -0.392864,0.10531 -0.975863,0.19343 -1.295552,0.19584 -0.441104,0.003 -0.556842,0.2105 -0.48,0.8593 0.08908,0.75212 0.332128,0.91566 2.021254,1.36002 l 1.92,0.50509 0.09844,1.360891 c 0.08941,1.23606 0.01603,1.39228 -0.8,1.70326 -1.552611,0.59166 -2.464982,0.63065 -3.538445,0.1512 z m 8.025196,-0.002 c -1.310704,-0.57006 -1.705196,-1.35051 -1.705196,-3.373431 0,-2.1471 0.343545,-2.71385 2.037129,-3.36064 1.278051,-0.48808 1.49079,-0.4917 2.364,-0.0401 1.195258,0.61809 1.569379,2.01979 0.760243,2.84834 -0.316656,0.32426 -1.267379,0.65201 -2.217811,0.76458 -1.473539,0.17451 -1.663561,0.28237 -1.663561,0.944231 0,1.02982 1.562844,1.81965 3.048915,1.54086 1.359862,-0.25511 1.425849,0.004 0.166976,0.65457 -1.140087,0.58956 -1.479251,0.5922 -2.790695,0.0217 z m 1.774803,-3.893431 c 0.778093,-0.15562 1,-0.36615 1,-0.94874 0,-0.95936 -0.918665,-1.45254 -2.111491,-1.13354 -0.927456,0.24803 -1.299779,0.95016 -0.965616,1.82097 0.19553,0.50955 0.58865,0.55901 2.077107,0.26131 z m 4.44,4.130801 c -0.962141,-0.14575 -1.15616,-0.55635 -0.4,-0.84652 0.371754,-0.14265 0.48,-0.76609 0.48,-2.764551 0,-2.38169 -0.05543,-2.60137 -0.72,-2.85337 -0.713161,-0.27042 -0.711305,-0.27704 0.195056,-0.69702 0.806963,-0.37392 0.964295,-0.35667 1.331907,0.14607 0.392403,0.53664 0.477111,0.53892 1.444163,0.0388 0.955172,-0.49394 1.124243,-0.49422 2.407792,-0.004 1.27169,0.48566 1.459002,0.48661 2.376778,0.012 1.065225,-0.55085 2.024934,-0.41966 2.964303,0.40522 0.449312,0.39455 0.56,1.01957 0.56,3.16215 0,2.222821 0.08492,2.670401 0.506666,2.670401 0.278669,0 0.443152,0.18 0.365523,0.4 -0.091,0.25789 -0.635757,0.36685 -1.533302,0.3067 -1.626554,-0.10901 -1.949376,-0.31392 -1.176221,-0.7466 0.450371,-0.25204 0.557334,-0.76008 0.557334,-2.647101 0,-2.10427 -0.0703,-2.36656 -0.710867,-2.6524 -0.471331,-0.21031 -1.06439,-0.20869 -1.76,0.005 l -1.049132,0.32199 v 2.46899 c 0,2.287121 0.05304,2.483901 0.72,2.671431 1.169798,0.3289 -0.06171,0.84686 -1.470106,0.61831 -1.032166,-0.1675 -1.691264,-0.74611 -0.849894,-0.74611 0.186774,0 0.32,-1.0701 0.32,-2.570311 0,-2.3715 -0.05557,-2.59086 -0.718343,-2.83604 -0.404963,-0.1498 -1.102966,-0.13165 -1.599999,0.0416 -0.836797,0.29171 -0.881658,0.41027 -0.881658,2.32988 0,1.112381 -0.08014,2.231371 -0.178099,2.486641 -0.114397,0.29811 0.0859,0.53638 0.56,0.66616 0.613725,0.168 0.657216,0.25515 0.258099,0.51715 -0.264,0.17331 -0.624,0.29574 -0.8,0.27207 -0.176,-0.0237 -0.716,-0.10304 -1.2,-0.17636 z m 17.439999,-0.2354 c -0.669123,-0.29886 -1.04,-0.69151 -1.04,-1.10106 0,-0.98296 0.514697,-1.07323 1.092374,-0.19159 0.831911,1.26966 3.067627,1.01783 3.067627,-0.34553 0,-0.6491 -0.27884,-0.83644 -1.998936,-1.343001 -2.085116,-0.61405 -2.400201,-0.99786 -2.030006,-2.47283 0.130496,-0.51994 0.632563,-0.91788 1.646726,-1.30519 1.360716,-0.51966 1.533206,-0.52181 2.560606,-0.0319 1.22853,0.58585 1.30301,0.77905 0.64551,1.67451 -0.43948,0.59854 -0.46882,0.58781 -0.8057,-0.29467 -0.28118,-0.73659 -0.4894,-0.87836 -1.063904,-0.72437 -0.392864,0.10531 -0.975862,0.19343 -1.295552,0.19584 -0.441104,0.003 -0.556841,0.2105 -0.48,0.8593 0.08908,0.75212 0.332128,0.91566 2.021256,1.36002 l 1.92,0.50509 0.0984,1.360881 c 0.0894,1.23607 0.016,1.39229 -0.80001,1.70327 -1.552607,0.59166 -2.464978,0.63065 -3.53844,0.1512 z m 7.839991,0.0964 c -0.87841,-0.32451 -0.88,-0.33077 -0.88,-3.476171 0,-3.01248 -0.0317,-3.1573 -0.72,-3.29271 l -0.72,-0.14163 0.70264,-0.23341 c 0.52271,-0.17363 0.72757,-0.53162 0.8,-1.39796 0.0674,-0.80642 0.26958,-1.19719 0.65736,-1.27068 0.45905,-0.087 0.56,0.12885 0.56,1.19734 0,1.17703 0.0776,1.30346 0.8,1.30346 0.50224,0 0.8,0.18093 0.8,0.4861 0,0.35871 -0.20964,0.43348 -0.8,0.28531 l -0.8,-0.20079 v 3.07469 3.074691 h 0.82667 c 0.51903,0 0.7771,0.14886 0.69349,0.4 -0.17516,0.52605 -0.83645,0.59209 -1.92016,0.19176 z m 4.48,-0.13479 c -0.69639,-0.3778 -0.88,-0.70661 -0.88,-1.57593 0,-1.299601 0.70011,-1.801921 2.880004,-2.066351 1.28171,-0.15548 1.45113,-0.27141 1.54125,-1.05453 0.0808,-0.70204 -0.0689,-0.94455 -0.74084,-1.2 -1.18352,-0.44998 -2.08041,-0.39796 -2.08041,0.12066 0,0.24245 -0.203889,0.61003 -0.453084,0.81685 -0.36178,0.30024 -0.49493,0.24423 -0.66066,-0.27795 -0.29096,-0.91675 -0.0604,-1.15659 1.543644,-1.60569 1.19863,-0.33559 1.55437,-0.31723 2.40824,0.12432 l 1.00186,0.51809 v 2.87178 c 0,2.658451 0.0475,2.871781 0.64,2.871781 0.352,0 0.64,0.1286 0.64,0.28577 0,0.53611 -1.04864,0.68974 -1.72508,0.25275 -0.55826,-0.36065 -0.84085,-0.3644 -1.63492,-0.0217 -1.21767,0.52552 -1.40952,0.52089 -2.480004,-0.0598 z m 2.779174,-0.76905 c 0.63141,-0.24006 0.82083,-0.53544 0.82083,-1.28 0,-1.046821 -0.2934,-1.149231 -2.2,-0.76792 -0.75218,0.15044 -1.000004,0.37248 -1.000004,0.896 0,1.3108 0.862694,1.72849 2.379174,1.15192 z m 5.540832,1.04288 c -0.96214,-0.14575 -1.15616,-0.55635 -0.4,-0.84652 0.37176,-0.14265 0.48,-0.76609 0.48,-2.764551 0,-2.38169 -0.0554,-2.60137 -0.72,-2.85337 -0.71316,-0.27042 -0.7113,-0.27704 0.19506,-0.69702 0.804311,-0.3727 0.964531,-0.35633 1.324021,0.1353 0.38384,0.52495 0.47713,0.5268 1.51842,0.0302 1.03706,-0.49454 1.18555,-0.49295 2.27596,0.0245 l 1.16652,0.55354 v 2.80622 c 0,2.636841 0.0435,2.818441 0.72,3.008661 1.1698,0.3289 -0.0617,0.84686 -1.47011,0.61831 -1.03216,-0.16748 -1.69126,-0.74609 -0.84989,-0.74609 0.18615,0 0.32,-1.05036 0.32,-2.511101 0,-2.2951 -0.0619,-2.53887 -0.72,-2.83397 -0.46694,-0.20939 -1.02929,-0.21557 -1.6,-0.0176 -0.83498,0.28966 -0.88,0.40875 -0.88,2.3278 0,1.112391 -0.0801,2.231381 -0.17809,2.486641 -0.1144,0.29812 0.0859,0.53639 0.55999,0.66617 0.61372,0.168 0.65722,0.25514 0.2581,0.51715 -0.264,0.17331 -0.624,0.29574 -0.79999,0.27207 -0.176,-0.0237 -0.716,-0.10304 -1.199991,-0.17636 z m 9.647301,-0.50159 c -0.98238,-0.66026 -1.09687,-0.89795 -1.18623,-2.46289 -0.15065,-2.638451 0.0844,-3.165111 1.73928,-3.897151 0.87376,-0.3865 1.7652,-0.5668 2.22807,-0.45062 0.74973,0.18817 0.77156,0.14055 0.77156,-1.68355 0,-1.63483 -0.093,-1.92015 -0.72,-2.20984 -0.71797,-0.331712 -0.71752,-0.333302 0.15928,-0.563412 1.80283,-0.47315 1.84072,-0.35812 1.84072,5.588212 0,5.236711 0.0251,5.450041 0.64,5.450041 0.83865,0 0.82335,0.53868 -0.0229,0.80728 -0.40365,0.12812 -0.87298,0.021 -1.2,-0.2738 -0.46395,-0.41829 -0.64597,-0.42376 -1.33706,-0.0402 -1.12214,0.62282 -1.66651,0.57347 -2.91268,-0.26409 z m 2.83268,-0.4309 c 0.66451,-0.17808 0.72,-0.37565 0.72,-2.563551 0,-2.20914 -0.0524,-2.39052 -0.7695,-2.66316 -0.42322,-0.16091 -1.17922,-0.18349 -1.68,-0.0502 -0.87114,0.23191 -0.91457,0.33405 -1.00472,2.36282 -0.0904,2.033951 -0.0577,2.140201 0.8,2.605281 1.04281,0.56543 1.00131,0.5588 1.93422,0.30879 z m 5.44,0.65866 c -0.69639,-0.3778 -0.88,-0.70661 -0.88,-1.57593 0,-1.299601 0.70011,-1.801921 2.88,-2.066351 1.2817,-0.15548 1.45113,-0.27141 1.54124,-1.05453 0.0808,-0.70204 -0.0689,-0.94455 -0.74083,-1.2 -1.18352,-0.44998 -2.08041,-0.39796 -2.08041,0.12066 0,0.24245 -0.20389,0.61003 -0.45309,0.81685 -0.36178,0.30024 -0.49492,0.24423 -0.66066,-0.27795 -0.29096,-0.91675 -0.0604,-1.15659 1.54364,-1.60569 1.19863,-0.33559 1.55438,-0.31723 2.40825,0.12432 l 1.00186,0.51809 v 2.87178 c 0,2.658451 0.0475,2.871781 0.64,2.871781 0.352,0 0.64,0.1286 0.64,0.28577 0,0.53611 -1.04865,0.68974 -1.72509,0.25275 -0.55826,-0.36065 -0.84084,-0.3644 -1.63491,-0.0217 -1.21768,0.52552 -1.40953,0.52089 -2.48,-0.0598 z m 2.77917,-0.76905 c 0.63141,-0.24006 0.82083,-0.53544 0.82083,-1.28 0,-1.046821 -0.2934,-1.149231 -2.2,-0.76792 -0.75218,0.15044 -1,0.37248 -1,0.896 0,1.3108 0.86268,1.72849 2.37917,1.15192 z m 8.74083,1.04288 c -1.01103,-0.15315 -1.06261,-0.27391 -0.4,-0.93651 0.34088,-0.34088 0.48,-1.17194 0.48,-2.867451 0,-2.18166 -0.0621,-2.411 -0.72,-2.66048 -0.71684,-0.27181 -0.7161,-0.27482 0.16868,-0.685 1.39928,-0.64871 1.67132,-0.096 1.67132,3.39555 0,2.666121 0.0662,3.023351 0.56,3.023231 0.308,-8e-5 0.56,0.12846 0.56,0.28563 0,0.28916 -0.83275,0.7145 -1.22618,0.62629 -0.1176,-0.0264 -0.60982,-0.10794 -1.09382,-0.18126 z M 36.724745,94.221089 c 0,-0.50409 2.02848,-2.34942 2.418198,-2.19987 0.732637,0.28113 0.549075,0.66635 -0.73248,1.5372 -1.138176,0.7734 -1.685718,0.98865 -1.685718,0.66267 z m 91.519975,-0.10836 c 0,-0.14148 0.48123,-0.72366 1.06941,-1.29375 0.89131,-0.86389 1.13146,-0.96175 1.44194,-0.58764 0.29938,0.36072 0.13311,0.61479 -0.84661,1.29374 -1.27194,0.88146 -1.66474,1.02012 -1.66474,0.58765 z M 13.991417,93.553889 c -0.34009,-0.40978 -0.319077,-0.58867 0.120818,-1.02857 0.496681,-0.49668 0.56834,-0.49668 1.065023,0 0.439894,0.4399 0.460907,0.61879 0.120818,1.02857 -0.226432,0.27284 -0.520431,0.49606 -0.65333,0.49606 -0.1329,0 -0.426898,-0.22322 -0.653329,-0.49606 z M 44.78013,85.44687 c -3.072777,-3.315966 -3.305001,-3.635669 -3.134461,-4.31516 0.146378,-0.583213 0.617152,-0.782768 2.986423,-1.265901 1.546959,-0.315449 4.036652,-0.980982 5.532652,-1.478963 1.496,-0.497977 5.52183,-1.805939 8.946291,-2.906576 6.164431,-1.981283 6.243324,-2.018198 7.940869,-3.71574 1.819459,-1.819459 2.382855,-2.014067 3.521635,-1.216435 1.014455,0.710553 0.881472,1.747734 -0.418864,3.266886 -0.923894,1.079363 -2.427216,1.962269 -8.239999,4.839385 -3.910464,1.935536 -8.765932,4.462794 -10.789932,5.616124 -4.170659,2.37656 -5.076774,2.54456 -6.344614,1.17638 z m 42.024603,-1.934 c -3.31928,-1.23228 -12.293056,-5.774667 -12.621824,-6.388974 -0.185991,-0.34753 -0.338167,-0.929338 -0.338167,-1.292909 0,-0.628198 0.175795,-0.661037 3.538717,-0.661037 2.869612,0 4.254124,0.180612 7.322274,0.955204 4.14098,1.045436 6.36468,1.888182 6.99902,2.652521 0.788144,0.949651 0.830404,2.665712 0.095,3.855695 -1.01088,1.63563 -2.33177,1.86821 -4.99497,0.8795 z M 57.034734,70.418293 c -3.749693,-2.547049 -6.683104,-3.51303 -11.549839,-3.803382 -3.571347,-0.213069 -3.998227,-0.529664 -4.213443,-3.124905 -0.136323,-1.643863 -0.08224,-1.808765 0.891433,-2.718317 2.049488,-1.914509 2.687645,-1.735133 10.375481,2.916368 l 3.626541,2.194224 3.352518,0.291107 c 3.543238,0.307664 5.372604,0.950976 5.359683,1.884781 -0.02086,1.507126 -0.669427,3.167545 -1.496112,3.830191 -1.563939,1.25361 -2.736365,0.982026 -6.346262,-1.470067 z M 76.004742,68.26717 c -0.886163,-0.900509 0.614486,-2.086381 7.557401,-5.972143 4.00986,-2.244212 6.0209,-2.698231 7.02706,-1.586445 0.3541,0.39128 0.54262,1.001635 0.47952,1.552467 -0.12072,1.053808 -0.20532,1.099933 -7.21406,3.933449 -4.605556,1.861949 -7.34539,2.585366 -7.849921,2.072672 z M 62.501159,64.948089 c -0.30953,-0.342026 -0.973085,-0.711981 -1.474569,-0.822125 -1.899811,-0.417267 -3.501847,-2.384499 -3.501847,-4.300121 0,-0.88857 0.09306,-0.975501 1.04,-0.971523 1.642909,0.0069 2.375008,0.310668 2.754131,1.142751 0.296436,0.650602 0.5684,0.767834 1.719008,0.740983 2.225491,-0.05194 2.954448,-0.367386 3.066803,-1.327139 0.09674,-0.826349 0.173706,-0.856733 2.4,-0.947347 l 2.300057,-0.09362 0.102877,-1.074903 c 0.07347,-0.767638 -0.08661,-1.25143 -0.56,-1.692464 -0.364582,-0.33966 -0.662876,-0.809241 -0.662876,-1.04351 0,-0.420048 1.520297,-0.923827 3.977238,-1.317933 0.825296,-0.13238 1.628716,-0.573145 2.338489,-1.282918 0.928982,-0.928982 1.030707,-1.175693 0.722339,-1.751885 -0.435603,-0.813932 -2.02638,-1.819043 -3.333286,-2.106086 -1.382915,-0.303737 -2.744781,1.340525 -2.744781,3.313939 0,1.2828 -0.08472,1.423814 -1.113715,1.853757 -0.612547,0.255939 -1.349107,0.824589 -1.636803,1.263673 -0.52254,0.797495 -1.244246,0.962506 -2.609481,0.596637 -0.879114,-0.235594 -0.892243,-0.60423 -0.101648,-2.853622 l 0.618355,-1.759328 -0.724134,-0.841853 c -1.034074,-1.202182 -3.798534,-1.437468 -5.072573,-0.431731 -0.975648,0.770186 -1.128934,1.796784 -0.410176,2.747065 0.617549,0.816477 0.60785,1.726954 -0.03207,3.009703 -0.509779,1.021878 -0.557526,1.041056 -2,0.803308 -0.812765,-0.133958 -2.336064,-0.330928 -3.38511,-0.437705 L 52.27003,55.169948 51.870837,53.786239 c -0.698896,-2.422569 -1.110903,-7.41471 -0.763181,-9.247167 0.405411,-2.136474 1.708941,-4.708857 3.00414,-5.928374 1.642925,-1.546925 5.991581,-4.720749 6.468192,-4.720749 0.463613,0 1.492698,0.965178 2.28224,2.140503 0.327913,0.488137 0.539789,2.108739 0.698886,5.345676 0.125575,2.554845 0.329834,4.746691 0.453911,4.870768 0.258188,0.258192 2.680371,-0.401133 2.924435,-0.796039 0.08887,-0.143798 -0.121082,-1.005376 -0.466567,-1.914614 -0.345481,-0.909238 -0.63328,-2.191616 -0.639549,-2.849728 -0.0063,-0.658112 -0.220019,-2.060566 -0.475001,-3.116566 -0.254983,-1.056 -0.465853,-2.46 -0.468602,-3.12 -0.0048,-1.141625 0.04559,-1.199977 1.035002,-1.199561 0.572,2.4e-4 2.264,0.216041 3.76,0.479561 1.495999,0.26352 2.749532,0.479322 2.785628,0.479562 0.401504,0.0026 5.521261,6.675779 6.138118,8.000438 1.04407,2.242073 1.26631,5.743718 0.573322,9.033423 -0.269556,1.279616 -0.57994,2.87055 -0.689741,3.535405 -0.157565,0.954048 -0.841658,1.898291 -3.245712,4.479999 -4.634864,4.977373 -5.798543,5.991171 -6.876918,5.991171 -0.51336,0 -1.216473,-0.176793 -1.562473,-0.392873 -0.515229,-0.321767 -0.798487,-0.29281 -1.565031,0.16 -1.218959,0.720057 -2.045532,0.699251 -2.740777,-0.06899 z M 16.88677,40.529953 c 0.0013,-0.463693 0.343047,-0.914051 0.96,-1.265117 1.215246,-0.69151 1.210734,-1.300217 -0.02975,-4.014028 -2.715566,-5.940834 -3.81227,-8.39742 -3.81227,-8.539382 0,-0.07525 -0.420609,-1.046866 -0.934686,-2.159146 -0.514078,-1.112279 -1.12126,-2.621899 -1.349295,-3.35471 l -0.414608,-1.332384 -0.912364,0.471802 c -1.0986796,0.56815 -2.2671106,0.458932 -2.3971146,-0.224067 -0.212971,-1.118884 1.466969,-2.162705 7.8728846,-4.891768 6.962275,-2.966086 8.013329,-3.193837 11.124275,-2.410491 1.898687,0.478095 3.80346,2.654643 5.688936,6.50064 1.745005,3.559464 2.615894,6.351362 2.912253,9.336113 0.266825,2.687335 -0.182186,3.838314 -2.438455,6.250621 -1.479276,1.581584 -3.451592,2.44873 -11.872275,5.219757 -4.063394,1.337155 -4.400215,1.368723 -4.397527,0.41216 z m 9.757976,-5.179731 c 0.88,-0.392342 2.374087,-1.058493 3.320193,-1.480336 l 1.720194,-0.766985 -0.184589,-2.726473 c -0.343075,-5.06739 -3.667404,-12.233881 -6.690935,-14.424115 -1.233028,-0.893201 -1.249331,-0.895554 -2.742632,-0.395809 -4.781788,1.600265 -6.266787,2.349734 -6.400882,3.230483 -0.104069,0.683533 1.27908,4.123861 4.592486,11.422967 1.934663,4.261868 2.386165,5.416751 2.386165,6.103487 0,0.829648 -0.0463,0.8408 4,-0.963219 z m 82.079974,2.492409 c -0.792,-0.471718 -2.016,-1.293823 -2.72,-1.826899 -0.704,-0.533075 -1.3424,-1.015852 -1.41867,-1.072838 -0.39755,-0.297043 0.80814,-0.892941 1.8067,-0.892941 1.34668,0 1.57434,-0.325116 3.63893,-5.196666 0.72802,-1.717833 1.43516,-3.267333 1.57141,-3.443333 0.13625,-0.176 0.34127,-0.758282 0.4556,-1.29396 0.16777,-0.786089 0.0515,-1.12091 -0.60305,-1.73578 -0.92714,-0.871001 -1.01312,-1.364083 -0.33588,-1.926143 0.66391,-0.550996 4.24007,0.08922 4.84058,0.866571 0.75393,0.975976 0.88447,2.051237 0.37604,3.097542 -0.26507,0.545474 -0.6385,1.35177 -0.82986,1.79177 -0.19136,0.44 -0.77076,1.736 -1.28755,2.88 -0.51678,1.144 -1.26857,2.871999 -1.67063,3.839999 -0.40205,0.968 -0.94597,2.012883 -1.20869,2.321962 -0.54748,0.644083 -0.56297,0.619587 0.84491,1.335817 0.78906,0.401421 1.03432,0.7184 0.96,1.240695 -0.15931,1.119411 -2.55133,1.127097 -4.41984,0.01421 z M 41.990578,31.611358 c -1.882752,-0.743091 -2.356809,-1.380059 -2.877926,-3.866935 -0.33584,-1.602695 -0.314819,-1.934714 0.172208,-2.72 0.936864,-1.510602 1.997907,-2.256688 3.999884,-2.812559 2.749162,-0.763337 4.64,-1.489098 4.64,-1.780971 0,-0.138662 -0.168733,-0.983099 -0.37496,-1.876526 l -0.37496,-1.624412 h -2.51296 c -2.403055,0 -2.526607,0.0359 -2.825039,0.820831 -0.171645,0.451458 -0.31208,1.247022 -0.31208,1.767921 0,0.730156 -0.194298,1.02096 -0.848272,1.2696 -0.957079,0.36388 -1.738173,-0.171878 -2.750563,-1.886625 -0.552266,-0.935404 -0.548314,-0.957267 0.336073,-1.859131 1.662979,-1.695841 3.297267,-2.650642 5.713053,-3.337738 1.098694,-0.31249 1.711504,-0.284161 3.519999,0.162722 1.204339,0.297594 2.417069,0.712382 2.694954,0.92175 0.573993,0.432469 1.378643,3.495713 2.848464,10.84392 l 0.364694,1.823251 1.49792,0.09675 c 1.970499,0.127272 2.150697,0.862736 0.488179,1.992448 -1.40383,0.953927 -2.960403,1.063748 -4.253196,0.300077 -0.85808,-0.506882 -0.933818,-0.492492 -2.289373,0.434999 -3.225043,2.206623 -4.171312,2.390274 -6.856099,1.330629 z m 5.565165,-3.508585 c 1.430662,-0.820414 1.680422,-1.095181 1.524371,-1.676997 -0.102647,-0.382702 -0.190804,-1.055822 -0.195901,-1.495822 -0.0185,-1.596043 -0.326874,-1.675374 -3.053168,-0.785422 -3.287577,1.073173 -3.3523,1.133677 -2.942016,2.750076 0.254285,1.001805 0.563047,1.407311 1.32368,1.738436 1.354653,0.589717 1.403472,0.581973 3.343034,-0.530271 z m 38.12899,2.214663 c -1.70286,-1.173417 -2.64944,-2.088053 -3.15285,-3.046445 -1.32779,-2.527851 1.17323,-12.261036 3.15058,-12.261036 0.31026,0 1.10942,-0.227844 1.77591,-0.506318 1.78003,-0.743748 6.162434,-0.776119 7.267364,-0.05368 1.20656,0.788886 1.30675,0.722301 1.07682,-0.715597 -0.25065,-1.567526 -1.15343,-3.524402 -1.62593,-3.524402 -0.19226,0 -1.47588,0.576 -2.852484,1.279999 -2.89084,1.478389 -3.32018,1.543496 -3.69286,0.56 -0.30469,-0.804057 0.0478,-1.417073 1.0803,-1.878688 0.74546,-0.3332839 3.424204,-1.8256949 3.609434,-2.0109179 0.0676,-0.06758 -0.785944,-0.811489 -1.896704,-1.653138 -1.11077,-0.841648 -2.07508,-1.572347 -2.14292,-1.623775 -0.0678,-0.05143 0.12552,-0.473328 0.42969,-0.937555 0.45908,-0.700641 0.71652,-0.811351 1.51525,-0.651605 0.52922,0.105844 1.50858,0.625171 2.176364,1.154061 0.66778,0.528891 1.35802,0.961619 1.53386,0.961619 0.17584,0 0.4026,0.216 0.50391,0.48 0.1013,0.264 0.45907,0.48 0.79505,0.48 0.33597,0 0.79012,-0.216 1.00922,-0.48 0.2191,-0.264 0.5494,-0.48 0.73399,-0.48 0.18459,0 0.612252,-0.250346 0.950352,-0.556324 0.5898,-0.533766 0.6532,-0.513275 1.56334,0.505352 1.098011,1.228909 0.960721,1.563341 -1.00584,2.450142 -1.288722,0.581133 -1.546402,0.919553 -0.97095,1.275199 0.17099,0.105677 0.63495,0.870175 1.03102,1.6988849 0.62602,1.309842 0.7213,2.02947 0.72911,5.506745 0.0108,4.807504 -0.79862,8.606257 -2.649492,12.434547 -0.81025,1.675893 -3.2319,2.608197 -6.741344,2.595333 -2.55575,-0.0094 -2.86684,-0.08361 -4.20019,-1.002399 z m 7.938764,-3.707482 c 0.36547,-1.012 0.92451,-3.116002 1.24229,-4.67556 l 0.57779,-2.83556 -1.11942,-0.951399 c -1.59809,-1.358224 -2.462289,-1.616323 -4.639424,-1.385582 l -1.92,0.203489 -0.5406,1.662306 c -0.29733,0.914269 -0.71893,2.854773 -0.93688,4.312232 l -0.39628,2.649925 1.40351,1.430074 c 1.38351,1.409697 1.43387,1.430075 3.534,1.430075 h 2.130504 z M 63.63817,28.779828 c -0.597616,-0.340656 -1.497616,-1.013178 -2,-1.494494 l -0.913427,-0.875118 v -5.820948 c 0,-6.235741 -0.0065,-6.261292 -1.700774,-6.6665 -0.698416,-0.167038 -0.878134,-0.374253 -0.8,-0.922399 0.228346,-1.601922 4.385801,-2.465831 5.571177,-1.157677 0.546362,0.60295 0.619971,1.306263 0.709597,6.779954 l 0.100003,6.107217 0.859997,0.748316 c 1.278813,1.112739 2.174905,1.220484 4.184985,0.503195 l 1.795014,-0.640542 0.08811,-5.202883 c 0.08839,-5.219608 -0.06373,-6.087994 -1.066458,-6.087994 -0.230991,0 -0.777945,-0.136096 -1.215449,-0.302436 -1.245414,-0.473505 -0.76089,-1.477436 1.003142,-2.078502 1.95497,-0.666125 3.358765,-0.62931 4.27521,0.112119 0.746588,0.604011 0.756588,0.693615 0.852448,7.638119 l 0.097,7.026938 1.343004,0.282241 c 0.992506,0.208583 1.36744,0.452888 1.43664,0.93611 0.111956,0.781793 -1.640982,1.74541 -3.175119,1.74541 -0.956407,0 -2.838519,-0.876173 -2.838519,-1.321405 0,-0.122878 -0.756,0.07679 -1.68,0.443701 -2.357567,0.936175 -5.520246,1.049219 -6.926572,0.247578 z m 51.90445,-11.740951 c -0.83107,-1.976904 -0.84015,-2.587665 -0.0461,-3.099395 1.12485,-0.724917 2.89138,-0.957744 3.54616,-0.467381 0.64488,0.482947 1.06268,3.070848 0.60526,3.749084 -0.17412,0.258176 -1.03569,0.51014 -2.01377,0.588922 -1.62935,0.131241 -1.72736,0.0951 -2.09155,-0.77123 z"
       id="path3939" />
  </g>
</svg>
