<?xml version="1.0" encoding="UTF-8" standalone="no"?>
<!-- Created with Inkscape (http://www.inkscape.org/) -->

<svg
   xmlns:osb="http://www.openswatchbook.org/uri/2009/osb"
   xmlns:dc="http://purl.org/dc/elements/1.1/"
   xmlns:cc="http://creativecommons.org/ns#"
   xmlns:rdf="http://www.w3.org/1999/02/22-rdf-syntax-ns#"
   xmlns:svg="http://www.w3.org/2000/svg"
   xmlns="http://www.w3.org/2000/svg"
   xmlns:sodipodi="http://sodipodi.sourceforge.net/DTD/sodipodi-0.dtd"
   xmlns:inkscape="http://www.inkscape.org/namespaces/inkscape"
   width="210mm"
   height="297mm"
   viewBox="0 0 210 297"
   version="1.1"
   id="svg4665"
   inkscape:version="0.92.4 (5da689c313, 2019-01-14)"
   sodipodi:docname="ulfur.h-kort.svg">
  <defs
     id="defs4659">
    <linearGradient
       inkscape:collect="always"
       id="linearGradient5251"
       osb:paint="gradient">
      <stop
         style="stop-color:#000000;stop-opacity:1;"
         offset="0"
         id="stop5247" />
      <stop
         style="stop-color:#000000;stop-opacity:0;"
         offset="1"
         id="stop5249" />
    </linearGradient>
    <linearGradient
       id="linearGradient5217"
       osb:paint="solid">
      <stop
         style="stop-color:#000000;stop-opacity:1;"
         offset="0"
         id="stop5215" />
    </linearGradient>
  </defs>
  <sodipodi:namedview
     id="base"
     pagecolor="#ffffff"
     bordercolor="#666666"
     borderopacity="1.0"
     inkscape:pageopacity="0.0"
     inkscape:pageshadow="2"
     inkscape:zoom="1.979899"
     inkscape:cx="427.24354"
     inkscape:cy="893.5722"
     inkscape:document-units="mm"
     inkscape:current-layer="layer1"
     showgrid="false"
     inkscape:window-width="1920"
     inkscape:window-height="1017"
     inkscape:window-x="-8"
     inkscape:window-y="-8"
     inkscape:window-maximized="1" />
  <metadata
     id="metadata4662">
    <rdf:RDF>
      <cc:Work
         rdf:about="">
        <dc:format>image/svg+xml</dc:format>
        <dc:type
           rdf:resource="http://purl.org/dc/dcmitype/StillImage" />
        <dc:title></dc:title>
      </cc:Work>
    </rdf:RDF>
  </metadata>
  <g
     inkscape:label="Layer 1"
     inkscape:groupmode="layer"
     id="layer1">
    <rect
       style="fill:none;fill-opacity:1;stroke:none;stroke-width:0.465;stroke-miterlimit:4;stroke-dasharray:none;stroke-opacity:1"
       id="rect4667"
       width="115.66071"
       height="63.5"
       x="35.529766"
       y="41.488094" />
    <rect
       style="fill:none;fill-opacity:1;stroke:none;stroke-width:0.46499997;stroke-miterlimit:4;stroke-dasharray:none;stroke-opacity:1"
       id="rect5221"
       width="60.152721"
       height="32.341854"
       x="35.529766"
       y="41.488091" />
    <rect
       style="fill:none;fill-opacity:1;stroke:#000000;stroke-width:0.20308723;stroke-miterlimit:4;stroke-dasharray:none;stroke-opacity:1"
       id="rect5223"
       width="84.796913"
       height="54.796913"
       x="52.928776"
       y="45.869144"
       ry="9.1477795" />
    <flowRoot
       xml:space="preserve"
       id="flowRoot5225"
       style="font-style:normal;font-weight:normal;font-size:40px;line-height:1.25;font-family:sans-serif;letter-spacing:0px;word-spacing:0px;fill:#000000;fill-opacity:1;stroke:none"
       transform="scale(0.26458333)"><flowRegion
         id="flowRegion5227"><rect
           id="rect5229"
           width="119.28571"
           height="44.285709"
           x="227.14285"
           y="189.66254" /></flowRegion><flowPara
         id="flowPara5231">æUlfuræUæUlfoiehui</flowPara></flowRoot>    <g
       aria-label="Úlfur H."
       transform="scale(1.005617,0.99441435)"
       style="font-style:normal;font-weight:normal;font-size:5.77750921px;line-height:1.25;font-family:sans-serif;letter-spacing:0px;word-spacing:0px;fill:#ff0000;fill-opacity:1;stroke:#ff0000;stroke-width:0.14443772;stroke-opacity:1"
       id="text5235">
      <path
         d="m 60.940543,55.897402 v 2.439128 q 0,0.644922 -0.38585,1.030773 -0.383095,0.38585 -1.022505,0.38585 -0.636653,0 -0.975651,-0.374826 -0.336241,-0.374826 -0.336241,-1.077626 v -2.403299 h 1.118967 v 2.400543 q 0,0.34451 0.245291,0.34451 0.237022,0 0.237022,-0.34451 v -2.400543 z m -0.292144,-1.063845 -0.771701,0.752409 h -0.686263 l 0.686263,-0.752409 z"
         style="font-style:normal;font-variant:normal;font-weight:normal;font-stretch:normal;font-size:5.64444447px;font-family:'Bauhaus 93';-inkscape-font-specification:'Bauhaus 93, Normal';font-variant-ligatures:normal;font-variant-caps:normal;font-variant-numeric:normal;font-feature-settings:normal;text-align:start;writing-mode:lr-tb;text-anchor:start;fill:#ff0000;stroke:#ff0000;stroke-width:0.14443772;stroke-opacity:1"
         id="path5291" />
      <path
         d="m 62.580409,55.897402 v 3.762045 h -1.030773 v -3.762045 z"
         style="font-style:normal;font-variant:normal;font-weight:normal;font-stretch:normal;font-size:5.64444447px;font-family:'Bauhaus 93';-inkscape-font-specification:'Bauhaus 93, Normal';font-variant-ligatures:normal;font-variant-caps:normal;font-variant-numeric:normal;font-feature-settings:normal;text-align:start;writing-mode:lr-tb;text-anchor:start;fill:#ff0000;stroke:#ff0000;stroke-width:0.14443772;stroke-opacity:1"
         id="path5293" />
      <path
         d="m 64.672271,57.520731 v 1.080382 h -0.460265 v 1.058334 H 63.181234 V 57.32505 q 0,-0.394119 0.135047,-0.672483 0.170877,-0.355533 0.518143,-0.578776 0.350021,-0.225998 0.727604,-0.225998 l 0.110243,0.0028 v 1.080382 q -0.03583,-0.0028 -0.05237,-0.0028 -0.195681,0 -0.303168,0.129536 -0.104731,0.129535 -0.104731,0.369314 v 0.09371 z"
         style="font-style:normal;font-variant:normal;font-weight:normal;font-stretch:normal;font-size:5.64444447px;font-family:'Bauhaus 93';-inkscape-font-specification:'Bauhaus 93, Normal';font-variant-ligatures:normal;font-variant-caps:normal;font-variant-numeric:normal;font-feature-settings:normal;text-align:start;writing-mode:lr-tb;text-anchor:start;fill:#ff0000;stroke:#ff0000;stroke-width:0.14443772;stroke-opacity:1"
         id="path5295" />
      <path
         d="m 65.121512,56.950224 h 1.030772 v 1.551671 q 0,0.234266 0.195682,0.234266 0.192925,0 0.192925,-0.234266 v -1.551671 h 1.030773 v 1.532378 q 0,0.534679 -0.355534,0.903993 -0.355534,0.366558 -0.87092,0.366558 -0.587045,0 -0.945335,-0.427192 -0.278363,-0.333485 -0.278363,-0.926041 z"
         style="font-style:normal;font-variant:normal;font-weight:normal;font-stretch:normal;font-size:5.64444447px;font-family:'Bauhaus 93';-inkscape-font-specification:'Bauhaus 93, Normal';font-variant-ligatures:normal;font-variant-caps:normal;font-variant-numeric:normal;font-feature-settings:normal;text-align:start;writing-mode:lr-tb;text-anchor:start;fill:#ff0000;stroke:#ff0000;stroke-width:0.14443772;stroke-opacity:1"
         id="path5297" />
      <path
         d="m 69.682818,56.884078 v 1.10243 q -0.107487,-0.06063 -0.195681,-0.06063 -0.28112,0 -0.28112,0.429948 v 1.303624 h -1.030773 v -1.502062 q 0,-0.595312 0.325217,-0.94809 0.325218,-0.355534 0.868165,-0.355534 0.121267,0 0.314192,0.03032 z"
         style="font-style:normal;font-variant:normal;font-weight:normal;font-stretch:normal;font-size:5.64444447px;font-family:'Bauhaus 93';-inkscape-font-specification:'Bauhaus 93, Normal';font-variant-ligatures:normal;font-variant-caps:normal;font-variant-numeric:normal;font-feature-settings:normal;text-align:start;writing-mode:lr-tb;text-anchor:start;fill:#ff0000;stroke:#ff0000;stroke-width:0.14443772;stroke-opacity:1"
         id="path5299" />
      <path
         d="m 72.901915,57.242368 v 0.992187 h -0.311436 v 1.424892 h -1.118967 v -3.762045 h 1.118967 v 1.344966 z m 1.309137,-1.344966 v 3.762045 h -1.118967 v -3.762045 z"
         style="font-style:normal;font-variant:normal;font-weight:normal;font-stretch:normal;font-size:5.64444447px;font-family:'Bauhaus 93';-inkscape-font-specification:'Bauhaus 93, Normal';font-variant-ligatures:normal;font-variant-caps:normal;font-variant-numeric:normal;font-feature-settings:normal;text-align:start;writing-mode:lr-tb;text-anchor:start;fill:#ff0000;stroke:#ff0000;stroke-width:0.14443772;stroke-opacity:1"
         id="path5301" />
      <path
         d="m 75.65248,58.424724 q 0.270095,0 0.463021,0.195682 0.195681,0.195681 0.195681,0.465777 0,0.270095 -0.192925,0.460265 -0.192925,0.187413 -0.465777,0.187413 -0.283876,0 -0.468533,-0.181901 -0.181901,-0.184657 -0.181901,-0.468533 0,-0.275608 0.190169,-0.465777 0.190169,-0.192926 0.460265,-0.192926 z"
         style="font-style:normal;font-variant:normal;font-weight:normal;font-stretch:normal;font-size:5.64444447px;font-family:'Bauhaus 93';-inkscape-font-specification:'Bauhaus 93, Normal';font-variant-ligatures:normal;font-variant-caps:normal;font-variant-numeric:normal;font-feature-settings:normal;text-align:start;writing-mode:lr-tb;text-anchor:start;fill:#ff0000;stroke:#ff0000;stroke-width:0.14443772;stroke-opacity:1"
         id="path5303" />
    </g>
    <path
       style="fill:none;fill-opacity:1;stroke:#ff0000;stroke-width:0.72188973;stroke-miterlimit:4;stroke-dasharray:none;stroke-opacity:1"
       d="M 209.73476 273.85146 L 209.73476 212.10866 C 209.73476 194.11263 224.22254 179.62485 242.21857 179.62485 L 242.21857 179.62485 L 478.36523 179.62485 C 496.36127 179.62485 510.84905 194.11263 510.84905 212.10866 L 510.84905 273.85146 "
       id="path5285"
       transform="scale(0.26458333)" />
    <path
       style="fill:none;fill-opacity:1;stroke:#ff0000;stroke-width:0.72188973;stroke-miterlimit:4;stroke-dasharray:none;stroke-opacity:1"
       d="M 510.84905 273.85146 L 510.84905 341.72518 C 510.84905 359.72122 496.36127 374.209 478.36523 374.209 L 242.21857 374.209 C 224.22254 374.209 209.73476 359.72122 209.73476 341.72518 L 209.73476 273.85146 "
       id="rect5245"
       transform="scale(0.26458333)" />
    <path
       style="fill:#ff0000;stroke:#ff0000;stroke-width:0.26458332px;stroke-linecap:butt;stroke-linejoin:miter;stroke-opacity:1"
       d="M 63.142425,95.278322 H 126.95302"
       id="path5267"
       inkscape:connector-curvature="0" />
    <g
       aria-label="ulfurhrafneyvindsson@gmail.com"
       style="font-style:normal;font-weight:normal;font-size:3.78056622px;line-height:1.25;font-family:sans-serif;letter-spacing:0px;word-spacing:0px;fill:#ff0000;fill-opacity:1;stroke:#ff0000;stroke-width:0.09451414"
       id="text5289">
      <path
         d="m 65.571853,93.352974 h -0.347044 v -0.228902 q -0.175369,0.138449 -0.335969,0.212288 -0.1606,0.07384 -0.354428,0.07384 -0.324892,0 -0.505798,-0.19752 -0.180906,-0.199365 -0.180906,-0.583329 v -1.338335 h 0.347044 v 1.174043 q 0,0.156908 0.01477,0.269513 0.01477,0.110759 0.06276,0.190136 0.04984,0.08122 0.129219,0.118142 0.07938,0.03692 0.230747,0.03692 0.134757,0 0.293511,-0.07015 0.1606,-0.07015 0.299049,-0.17906 v -1.539547 h 0.347044 z"
         style="fill:#ff0000;stroke:#ff0000;stroke-width:0.09451414"
         id="path5306" />
      <path
         d="M 66.605601,93.352974 H 66.258557 V 90.48063 h 0.347044 z"
         style="fill:#ff0000;stroke:#ff0000;stroke-width:0.09451414"
         id="path5308" />
      <path
         d="m 68.405431,90.816598 h -0.01846 q -0.05723,-0.01661 -0.149525,-0.03323 -0.0923,-0.01846 -0.162446,-0.01846 -0.223364,0 -0.324892,0.09968 -0.09968,0.09784 -0.09968,0.356275 v 0.07015 h 0.625787 v 0.291665 h -0.614711 v 1.770294 H 67.314457 V 91.58268 h -0.234439 v -0.291665 h 0.234439 v -0.0683 q 0,-0.367349 0.182752,-0.563023 0.182752,-0.19752 0.527951,-0.19752 0.116296,0 0.208595,0.01108 0.09414,0.01108 0.171676,0.02584 z"
         style="fill:#ff0000;stroke:#ff0000;stroke-width:0.09451414"
         id="path5310" />
      <path
         d="m 70.33448,93.352974 h -0.347044 v -0.228902 q -0.175368,0.138449 -0.335969,0.212288 -0.1606,0.07384 -0.354428,0.07384 -0.324892,0 -0.505798,-0.19752 -0.180906,-0.199365 -0.180906,-0.583329 v -1.338335 h 0.347044 v 1.174043 q 0,0.156908 0.01477,0.269513 0.01477,0.110759 0.06276,0.190136 0.04984,0.08122 0.129219,0.118142 0.07938,0.03692 0.230747,0.03692 0.134757,0 0.293511,-0.07015 0.1606,-0.07015 0.299049,-0.17906 v -1.539547 h 0.347044 z"
         style="fill:#ff0000;stroke:#ff0000;stroke-width:0.09451414"
         id="path5312" />
      <path
         d="m 72.30414,91.669441 h -0.01846 q -0.07753,-0.01846 -0.15137,-0.02584 -0.07199,-0.0092 -0.171676,-0.0092 -0.1606,0 -0.310125,0.07199 -0.149524,0.07015 -0.287972,0.182752 v 1.463862 h -0.347044 v -2.061959 h 0.347044 v 0.304586 q 0.206749,-0.166138 0.363658,-0.234439 0.158754,-0.07015 0.323046,-0.07015 0.09045,0 0.131065,0.0055 0.04061,0.0037 0.121834,0.01661 z"
         style="fill:#ff0000;stroke:#ff0000;stroke-width:0.09451414"
         id="path5314" />
      <path
         d="m 74.358715,93.352974 h -0.347044 v -1.174043 q 0,-0.142141 -0.01661,-0.265821 -0.01661,-0.125527 -0.06092,-0.195674 -0.04615,-0.07753 -0.132911,-0.114451 -0.08676,-0.03876 -0.225209,-0.03876 -0.14214,0 -0.297203,0.07015 -0.155062,0.07015 -0.297202,0.17906 v 1.539547 H 72.63457 V 90.48063 h 0.347045 v 1.039286 q 0.162446,-0.134756 0.335968,-0.210441 0.173522,-0.07569 0.356274,-0.07569 0.334122,0 0.50949,0.201212 0.175368,0.201212 0.175368,0.579638 z"
         style="fill:#ff0000;stroke:#ff0000;stroke-width:0.09451414"
         id="path5316" />
      <path
         d="m 76.313607,91.669441 h -0.01846 q -0.07753,-0.01846 -0.151371,-0.02584 -0.07199,-0.0092 -0.171676,-0.0092 -0.1606,0 -0.310124,0.07199 -0.149525,0.07015 -0.287973,0.182752 v 1.463862 H 75.02696 v -2.061959 h 0.347044 v 0.304586 q 0.20675,-0.166138 0.363658,-0.234439 0.158754,-0.07015 0.323046,-0.07015 0.09045,0 0.131065,0.0055 0.04061,0.0037 0.121834,0.01661 z"
         style="fill:#ff0000;stroke:#ff0000;stroke-width:0.09451414"
         id="path5318" />
      <path
         d="m 78.179893,93.352974 h -0.345198 v -0.219672 q -0.04615,0.03138 -0.125527,0.08861 -0.07753,0.05538 -0.15137,0.08861 -0.08676,0.04246 -0.199366,0.07015 -0.112605,0.02954 -0.263975,0.02954 -0.278743,0 -0.472571,-0.184598 -0.193828,-0.184598 -0.193828,-0.470724 0,-0.23444 0.09968,-0.378426 0.101529,-0.145833 0.287973,-0.228902 0.18829,-0.08307 0.452265,-0.112604 0.263975,-0.02954 0.566716,-0.0443 v -0.05353 q 0,-0.118143 -0.04246,-0.195674 -0.04061,-0.07753 -0.118143,-0.121835 -0.07384,-0.04246 -0.177214,-0.05722 -0.103374,-0.01477 -0.215979,-0.01477 -0.136603,0 -0.304587,0.03692 -0.167984,0.03507 -0.347044,0.103375 h -0.01846 v -0.352582 q 0.101529,-0.02769 0.293511,-0.06092 0.191982,-0.03323 0.378426,-0.03323 0.217825,0 0.378426,0.03692 0.162446,0.03507 0.280589,0.121835 0.116296,0.08491 0.177214,0.219671 0.06092,0.134757 0.06092,0.334122 z M 77.834695,92.84533 v -0.5741 q -0.158755,0.0092 -0.374734,0.02769 -0.214134,0.01846 -0.33966,0.05353 -0.149525,0.04246 -0.241824,0.132911 -0.0923,0.08861 -0.0923,0.245515 0,0.177214 0.107067,0.267667 0.107067,0.08861 0.326738,0.08861 0.182752,0 0.334123,-0.07015 0.15137,-0.07199 0.280589,-0.171676 z"
         style="fill:#ff0000;stroke:#ff0000;stroke-width:0.09451414"
         id="path5320" />
      <path
         d="m 79.961263,90.816598 h -0.01846 q -0.05723,-0.01661 -0.149525,-0.03323 -0.0923,-0.01846 -0.162446,-0.01846 -0.223363,0 -0.324892,0.09968 -0.09968,0.09784 -0.09968,0.356275 v 0.07015 h 0.625787 v 0.291665 h -0.614711 v 1.770294 H 78.87029 V 91.58268 h -0.23444 v -0.291665 h 0.23444 v -0.0683 q 0,-0.367349 0.182752,-0.563023 0.182752,-0.19752 0.52795,-0.19752 0.116296,0 0.208595,0.01108 0.09414,0.01108 0.171676,0.02584 z"
         style="fill:#ff0000;stroke:#ff0000;stroke-width:0.09451414"
         id="path5322" />
      <path
         d="m 81.905079,93.352974 h -0.347044 v -1.174043 q 0,-0.142141 -0.01661,-0.265821 -0.01661,-0.125527 -0.06092,-0.195674 -0.04615,-0.07753 -0.132911,-0.114451 -0.08676,-0.03876 -0.225209,-0.03876 -0.142141,0 -0.297203,0.07015 -0.155062,0.07015 -0.297203,0.17906 v 1.539547 h -0.347044 v -2.061959 h 0.347044 v 0.228901 q 0.162447,-0.134756 0.335969,-0.210441 0.173522,-0.07569 0.356274,-0.07569 0.334122,0 0.50949,0.201212 0.175368,0.201212 0.175368,0.579638 z"
         style="fill:#ff0000;stroke:#ff0000;stroke-width:0.09451414"
         id="path5324" />
      <path
         d="m 84.299316,92.357991 h -1.519241 q 0,0.190136 0.05723,0.332276 0.05723,0.140295 0.156909,0.230748 0.09599,0.08861 0.227055,0.13291 0.132911,0.0443 0.291665,0.0443 0.210442,0 0.422729,-0.08307 0.214134,-0.08491 0.304587,-0.166138 h 0.01846 v 0.378425 q -0.175368,0.07384 -0.35812,0.123681 -0.182752,0.04984 -0.383964,0.04984 -0.513182,0 -0.801155,-0.276897 -0.287973,-0.278742 -0.287973,-0.790079 0,-0.505798 0.275051,-0.803001 0.276897,-0.297203 0.727316,-0.297203 0.417191,0 0.642401,0.24367 0.227055,0.243669 0.227055,0.692242 z M 83.961502,92.09217 q -0.0018,-0.273205 -0.138448,-0.422729 -0.134757,-0.149525 -0.411654,-0.149525 -0.278743,0 -0.444881,0.164292 -0.164292,0.164293 -0.186444,0.407962 z"
         style="fill:#ff0000;stroke:#ff0000;stroke-width:0.09451414"
         id="path5326" />
      <path
         d="m 86.608636,91.291015 -1.203579,2.822503 h -0.371042 l 0.383964,-0.860227 -0.821461,-1.962276 h 0.37658 l 0.633171,1.528471 0.638709,-1.528471 z"
         style="fill:#ff0000;stroke:#ff0000;stroke-width:0.09451414"
         id="path5328" />
      <path
         d="m 88.845964,91.291015 -0.834383,2.061959 h -0.34889 l -0.828845,-2.061959 h 0.37658 l 0.638709,1.641076 0.633171,-1.641076 z"
         style="fill:#ff0000;stroke:#ff0000;stroke-width:0.09451414"
         id="path5330" />
      <path
         d="m 89.672963,90.945817 h -0.391348 v -0.359966 h 0.391348 z m -0.02215,2.407157 h -0.347044 v -2.061959 h 0.347044 z"
         style="fill:#ff0000;stroke:#ff0000;stroke-width:0.09451414"
         id="path5332" />
      <path
         d="m 92.065352,93.352974 h -0.347044 v -1.174043 q 0,-0.142141 -0.01661,-0.265821 -0.01661,-0.125527 -0.06092,-0.195674 -0.04615,-0.07753 -0.13291,-0.114451 -0.08676,-0.03876 -0.22521,-0.03876 -0.14214,0 -0.297202,0.07015 -0.155063,0.07015 -0.297203,0.17906 v 1.539547 h -0.347044 v -2.061959 h 0.347044 v 0.228901 q 0.162446,-0.134756 0.335968,-0.210441 0.173522,-0.07569 0.356274,-0.07569 0.334123,0 0.509491,0.201212 0.175368,0.201212 0.175368,0.579638 z"
         style="fill:#ff0000;stroke:#ff0000;stroke-width:0.09451414"
         id="path5334" />
      <path
         d="m 94.406054,93.352974 h -0.347045 v -0.21598 q -0.149524,0.129219 -0.31197,0.201212 -0.162446,0.07199 -0.352582,0.07199 -0.369196,0 -0.587022,-0.284281 -0.215979,-0.28428 -0.215979,-0.788233 0,-0.262129 0.07384,-0.467033 0.07568,-0.204903 0.203058,-0.34889 0.125526,-0.140294 0.291664,-0.214133 0.167984,-0.07384 0.347045,-0.07384 0.162446,0 0.287972,0.03507 0.125527,0.03323 0.263975,0.105221 V 90.48063 h 0.347045 z M 94.059009,92.84533 v -1.183273 q -0.140294,-0.06276 -0.251053,-0.08676 -0.110759,-0.024 -0.241823,-0.024 -0.291665,0 -0.454111,0.203058 -0.162446,0.203057 -0.162446,0.575945 0,0.36735 0.125526,0.559332 0.125527,0.190136 0.402424,0.190136 0.147678,0 0.299049,-0.06461 0.15137,-0.06646 0.282434,-0.16983 z"
         style="fill:#ff0000;stroke:#ff0000;stroke-width:0.09451414"
         id="path5336" />
      <path
         d="m 96.562158,92.758569 q 0,0.282434 -0.234439,0.46334 -0.232593,0.180906 -0.636863,0.180906 -0.228901,0 -0.420883,-0.05353 -0.190136,-0.05538 -0.319355,-0.119989 v -0.389501 h 0.01846 q 0.164292,0.12368 0.365504,0.197519 0.201212,0.07199 0.38581,0.07199 0.228901,0 0.35812,-0.07384 0.129218,-0.07384 0.129218,-0.232593 0,-0.121835 -0.07015,-0.184598 -0.07015,-0.06276 -0.269513,-0.107067 -0.07384,-0.01661 -0.193828,-0.03876 -0.118142,-0.02215 -0.215979,-0.048 -0.271359,-0.07199 -0.38581,-0.210441 -0.112605,-0.140295 -0.112605,-0.343353 0,-0.127372 0.05169,-0.239977 0.05353,-0.112605 0.1606,-0.201212 0.103375,-0.08676 0.262129,-0.136602 0.1606,-0.05169 0.35812,-0.05169 0.184598,0 0.372888,0.04615 0.190136,0.0443 0.315662,0.108913 v 0.371041 h -0.01846 q -0.132911,-0.09784 -0.323047,-0.164292 -0.190136,-0.0683 -0.372888,-0.0683 -0.190136,0 -0.3212,0.07384 -0.131065,0.07199 -0.131065,0.21598 0,0.127372 0.07938,0.191982 0.07753,0.06461 0.251054,0.105221 0.09599,0.02215 0.214133,0.0443 0.119989,0.02215 0.199366,0.04061 0.241823,0.05538 0.372888,0.190136 0.131064,0.136602 0.131064,0.361812 z"
         style="fill:#ff0000;stroke:#ff0000;stroke-width:0.09451414"
         id="path5338" />
      <path
         d="m 98.533665,92.758569 q 0,0.282434 -0.23444,0.46334 -0.232593,0.180906 -0.636863,0.180906 -0.228901,0 -0.420883,-0.05353 -0.190136,-0.05538 -0.319355,-0.119989 v -0.389501 h 0.01846 q 0.164292,0.12368 0.365504,0.197519 0.201212,0.07199 0.38581,0.07199 0.228901,0 0.35812,-0.07384 0.129218,-0.07384 0.129218,-0.232593 0,-0.121835 -0.07015,-0.184598 -0.07015,-0.06276 -0.269513,-0.107067 -0.07384,-0.01661 -0.193828,-0.03876 -0.118142,-0.02215 -0.215979,-0.048 -0.271359,-0.07199 -0.38581,-0.210441 -0.112605,-0.140295 -0.112605,-0.343353 0,-0.127372 0.05169,-0.239977 0.05353,-0.112605 0.1606,-0.201212 0.103375,-0.08676 0.262129,-0.136602 0.1606,-0.05169 0.35812,-0.05169 0.184598,0 0.372888,0.04615 0.190136,0.0443 0.315662,0.108913 v 0.371041 h -0.01846 q -0.132911,-0.09784 -0.323047,-0.164292 -0.190136,-0.0683 -0.372888,-0.0683 -0.190136,0 -0.3212,0.07384 -0.131065,0.07199 -0.131065,0.21598 0,0.127372 0.07938,0.191982 0.07753,0.06461 0.251054,0.105221 0.09599,0.02215 0.214133,0.0443 0.119989,0.02215 0.199366,0.04061 0.241823,0.05538 0.372888,0.190136 0.131065,0.136602 0.131065,0.361812 z"
         style="fill:#ff0000;stroke:#ff0000;stroke-width:0.09451414"
         id="path5340" />
      <path
         d="m 100.78945,92.322917 q 0,0.503953 -0.25844,0.795618 -0.25843,0.291664 -0.69224,0.291664 -0.437497,0 -0.695934,-0.291664 -0.256591,-0.291665 -0.256591,-0.795618 0,-0.503952 0.256591,-0.795617 0.258437,-0.293511 0.695934,-0.293511 0.43381,0 0.69224,0.293511 0.25844,0.291665 0.25844,0.795617 z m -0.35812,0 q 0,-0.400577 -0.15691,-0.594405 -0.15691,-0.195674 -0.43565,-0.195674 -0.282435,0 -0.439343,0.195674 -0.155062,0.193828 -0.155062,0.594405 0,0.387656 0.156908,0.588868 0.156908,0.199366 0.437497,0.199366 0.2769,0 0.43381,-0.19752 0.15875,-0.199366 0.15875,-0.590714 z"
         style="fill:#ff0000;stroke:#ff0000;stroke-width:0.09451414"
         id="path5342" />
      <path
         d="m 103.05262,93.352974 h -0.34704 v -1.174043 q 0,-0.142141 -0.0166,-0.265821 -0.0166,-0.125527 -0.0609,-0.195674 -0.0461,-0.07753 -0.13291,-0.114451 -0.0868,-0.03876 -0.22521,-0.03876 -0.14214,0 -0.2972,0.07015 -0.15507,0.07015 -0.29721,0.17906 v 1.539547 h -0.34704 v -2.061959 h 0.34704 v 0.228901 q 0.16245,-0.134756 0.33597,-0.210441 0.17352,-0.07569 0.35628,-0.07569 0.33412,0 0.50949,0.201212 0.17536,0.201212 0.17536,0.579638 z"
         style="fill:#ff0000;stroke:#ff0000;stroke-width:0.09451414"
         id="path5344" />
      <path
         d="m 106.83134,92.129089 q 0,0.256592 -0.0757,0.496569 -0.0738,0.239977 -0.21229,0.437497 h -0.81223 l -0.0498,-0.214133 q -0.13661,0.110758 -0.26213,0.16983 -0.12553,0.05907 -0.28798,0.05907 -0.31012,0 -0.49656,-0.234439 -0.1846,-0.23444 -0.1846,-0.655323 0,-0.419038 0.22705,-0.668245 0.22706,-0.249207 0.54272,-0.249207 0.13476,0 0.23813,0.03138 0.10338,0.02953 0.22337,0.09045 v -0.08861 h 0.29351 v 1.554314 h 0.44857 q 0.0775,-0.138448 0.1163,-0.345198 0.0406,-0.208595 0.0406,-0.372888 0,-0.30274 -0.0849,-0.550102 -0.0831,-0.247361 -0.24551,-0.424575 -0.16245,-0.177214 -0.40243,-0.271359 -0.23997,-0.09599 -0.54456,-0.09599 -0.29536,0 -0.54087,0.107067 -0.24367,0.107067 -0.41904,0.287973 -0.17721,0.180906 -0.27874,0.433805 -0.0997,0.251053 -0.0997,0.535334 0,0.304587 0.096,0.557486 0.096,0.251053 0.27136,0.430113 0.18275,0.186444 0.42826,0.280589 0.24552,0.09599 0.53534,0.09599 0.15875,0 0.32674,-0.02031 0.16983,-0.02031 0.32489,-0.06461 v 0.262129 q -0.17906,0.03877 -0.33412,0.05169 -0.15507,0.01477 -0.31936,0.01477 -0.34335,0 -0.63686,-0.118142 -0.29351,-0.116297 -0.50395,-0.326739 -0.21229,-0.212287 -0.33043,-0.50949 -0.11815,-0.297203 -0.11815,-0.657169 0,-0.341506 0.12368,-0.635017 0.12368,-0.295357 0.33782,-0.511336 0.21413,-0.21598 0.50764,-0.33966 0.29351,-0.123681 0.62763,-0.123681 0.36182,0 0.6461,0.114451 0.28428,0.11445 0.47995,0.3212 0.19568,0.20675 0.29905,0.498415 0.10522,0.289818 0.10522,0.646092 z m -1.15374,0.470725 v -0.956217 q -0.11629,-0.05353 -0.20859,-0.07568 -0.0923,-0.024 -0.19752,-0.024 -0.23813,0 -0.37289,0.166138 -0.13476,0.166138 -0.13476,0.472571 0,0.300895 0.10707,0.455957 0.10707,0.153216 0.33412,0.153216 0.12368,0 0.24737,-0.05723 0.12368,-0.05723 0.2252,-0.134757 z"
         style="fill:#ff0000;stroke:#ff0000;stroke-width:0.09451414"
         id="path5346" />
      <path
         d="m 109.17389,93.118535 q 0,0.524258 -0.23813,0.769773 -0.23813,0.245515 -0.73285,0.245515 -0.1643,0 -0.3212,-0.024 -0.15507,-0.02215 -0.30644,-0.06461 v -0.354428 h 0.0185 q 0.0849,0.03323 0.26952,0.08122 0.18459,0.04984 0.36919,0.04984 0.17722,0 0.29351,-0.04246 0.1163,-0.04246 0.18091,-0.118142 0.0646,-0.07199 0.0923,-0.173523 0.0277,-0.101528 0.0277,-0.227055 v -0.18829 q -0.15691,0.125527 -0.3009,0.18829 -0.14214,0.06092 -0.36366,0.06092 -0.36919,0 -0.58702,-0.265821 -0.21598,-0.267667 -0.21598,-0.753159 0,-0.265822 0.0738,-0.457803 0.0757,-0.193828 0.20491,-0.334123 0.11998,-0.131064 0.29166,-0.203057 0.17168,-0.07384 0.34151,-0.07384 0.17906,0 0.29905,0.03692 0.12183,0.03507 0.25659,0.108913 l 0.0222,-0.08861 h 0.32489 z m -0.34704,-0.332277 v -1.124201 q -0.13845,-0.06276 -0.25844,-0.08861 -0.11814,-0.02769 -0.23629,-0.02769 -0.28612,0 -0.45041,0.191982 -0.1643,0.191982 -0.1643,0.557486 0,0.347044 0.12184,0.526104 0.12183,0.17906 0.40427,0.17906 0.15137,0 0.30274,-0.05723 0.15321,-0.05907 0.28059,-0.156908 z"
         style="fill:#ff0000;stroke:#ff0000;stroke-width:0.09451414"
         id="path5348" />
      <path
         d="m 112.86585,93.352974 h -0.34705 v -1.174043 q 0,-0.132911 -0.0129,-0.256591 -0.0111,-0.123681 -0.0498,-0.19752 -0.0425,-0.07938 -0.12183,-0.119989 -0.0794,-0.04061 -0.2289,-0.04061 -0.14584,0 -0.29167,0.07384 -0.14583,0.07199 -0.29166,0.184598 0.006,0.04246 0.009,0.09968 0.004,0.05538 0.004,0.110759 v 1.319875 h -0.34705 v -1.174043 q 0,-0.136603 -0.0129,-0.258437 -0.0111,-0.123681 -0.0498,-0.19752 -0.0425,-0.07938 -0.12183,-0.118143 -0.0794,-0.04061 -0.22891,-0.04061 -0.14214,0 -0.28612,0.07015 -0.14214,0.07015 -0.28428,0.17906 v 1.539547 h -0.34705 v -2.061959 h 0.34705 v 0.228901 q 0.16244,-0.134756 0.32304,-0.210441 0.16245,-0.07569 0.3452,-0.07569 0.21044,0 0.35628,0.08861 0.14767,0.08861 0.21967,0.245516 0.21044,-0.177214 0.38396,-0.254746 0.17352,-0.07938 0.37104,-0.07938 0.33966,0 0.50026,0.20675 0.16245,0.204904 0.16245,0.5741 z"
         style="fill:#ff0000;stroke:#ff0000;stroke-width:0.09451414"
         id="path5350" />
      <path
         d="m 115.13641,93.352974 h -0.3452 v -0.219672 q -0.0462,0.03138 -0.12553,0.08861 -0.0775,0.05538 -0.15137,0.08861 -0.0868,0.04246 -0.19937,0.07015 -0.1126,0.02954 -0.26397,0.02954 -0.27874,0 -0.47257,-0.184598 -0.19383,-0.184598 -0.19383,-0.470724 0,-0.23444 0.0997,-0.378426 0.10153,-0.145833 0.28798,-0.228902 0.18829,-0.08307 0.45226,-0.112604 0.26398,-0.02954 0.56672,-0.0443 v -0.05353 q 0,-0.118143 -0.0425,-0.195674 -0.0406,-0.07753 -0.11814,-0.121835 -0.0738,-0.04246 -0.17722,-0.05722 -0.10337,-0.01477 -0.21598,-0.01477 -0.1366,0 -0.30458,0.03692 -0.16799,0.03507 -0.34705,0.103375 h -0.0185 v -0.352582 q 0.10153,-0.02769 0.29351,-0.06092 0.19199,-0.03323 0.37843,-0.03323 0.21782,0 0.37843,0.03692 0.16244,0.03507 0.28058,0.121835 0.1163,0.08491 0.17722,0.219671 0.0609,0.134757 0.0609,0.334122 z m -0.3452,-0.507644 v -0.5741 q -0.15876,0.0092 -0.37474,0.02769 -0.21413,0.01846 -0.33966,0.05353 -0.14952,0.04246 -0.24182,0.132911 -0.0923,0.08861 -0.0923,0.245515 0,0.177214 0.10707,0.267667 0.10706,0.08861 0.32674,0.08861 0.18275,0 0.33412,-0.07015 0.15137,-0.07199 0.28059,-0.171676 z"
         style="fill:#ff0000;stroke:#ff0000;stroke-width:0.09451414"
         id="path5352" />
      <path
         d="m 116.18123,90.945817 h -0.39135 v -0.359966 h 0.39135 z m -0.0221,2.407157 h -0.34705 v -2.061959 h 0.34705 z"
         style="fill:#ff0000;stroke:#ff0000;stroke-width:0.09451414"
         id="path5354" />
      <path
         d="m 117.20021,93.352974 h -0.34704 V 90.48063 h 0.34704 z"
         style="fill:#ff0000;stroke:#ff0000;stroke-width:0.09451414"
         id="path5356" />
      <path
         d="m 118.45732,93.352974 h -0.44119 V 92.82687 h 0.44119 z"
         style="fill:#ff0000;stroke:#ff0000;stroke-width:0.09451414"
         id="path5358" />
      <path
         d="m 120.78879,93.223755 q -0.17352,0.08307 -0.33043,0.129219 -0.15506,0.04615 -0.33043,0.04615 -0.22336,0 -0.4098,-0.06461 -0.18645,-0.06646 -0.31936,-0.199366 -0.13476,-0.13291 -0.20859,-0.335968 -0.0738,-0.203058 -0.0738,-0.474417 0,-0.505798 0.27689,-0.793771 0.27875,-0.287973 0.7347,-0.287973 0.17722,0 0.34705,0.04984 0.17167,0.04984 0.31381,0.121834 v 0.38581 h -0.0185 q -0.15875,-0.123681 -0.32858,-0.190136 -0.16798,-0.06646 -0.32858,-0.06646 -0.29536,0 -0.46704,0.199366 -0.16983,0.19752 -0.16983,0.581483 0,0.372888 0.16614,0.5741 0.16798,0.199366 0.47073,0.199366 0.10522,0 0.21413,-0.02769 0.10891,-0.02769 0.19567,-0.07199 0.0757,-0.03877 0.14214,-0.08122 0.0665,-0.0443 0.10522,-0.07568 h 0.0185 z"
         style="fill:#ff0000;stroke:#ff0000;stroke-width:0.09451414"
         id="path5360" />
      <path
         d="m 122.9929,92.322917 q 0,0.503953 -0.25844,0.795618 -0.25844,0.291664 -0.69224,0.291664 -0.4375,0 -0.69594,-0.291664 -0.25659,-0.291665 -0.25659,-0.795618 0,-0.503952 0.25659,-0.795617 0.25844,-0.293511 0.69594,-0.293511 0.4338,0 0.69224,0.293511 0.25844,0.291665 0.25844,0.795617 z m -0.35812,0 q 0,-0.400577 -0.15691,-0.594405 -0.15691,-0.195674 -0.43565,-0.195674 -0.28244,0 -0.43935,0.195674 -0.15506,0.193828 -0.15506,0.594405 0,0.387656 0.15691,0.588868 0.15691,0.199366 0.4375,0.199366 0.27689,0 0.4338,-0.19752 0.15876,-0.199366 0.15876,-0.590714 z"
         style="fill:#ff0000;stroke:#ff0000;stroke-width:0.09451414"
         id="path5362" />
      <path
         d="m 126.54087,93.352974 h -0.34705 v -1.174043 q 0,-0.132911 -0.0129,-0.256591 -0.0111,-0.123681 -0.0498,-0.19752 -0.0425,-0.07938 -0.12183,-0.119989 -0.0794,-0.04061 -0.22891,-0.04061 -0.14583,0 -0.29166,0.07384 -0.14583,0.07199 -0.29167,0.184598 0.006,0.04246 0.009,0.09968 0.004,0.05538 0.004,0.110759 v 1.319875 h -0.34705 v -1.174043 q 0,-0.136603 -0.0129,-0.258437 -0.0111,-0.123681 -0.0498,-0.19752 -0.0425,-0.07938 -0.12184,-0.118143 -0.0794,-0.04061 -0.2289,-0.04061 -0.14214,0 -0.28612,0.07015 -0.14214,0.07015 -0.28429,0.17906 v 1.539547 h -0.34704 v -2.061959 h 0.34704 v 0.228901 q 0.16245,-0.134756 0.32305,-0.210441 0.16245,-0.07569 0.3452,-0.07569 0.21044,0 0.35627,0.08861 0.14768,0.08861 0.21968,0.245516 0.21044,-0.177214 0.38396,-0.254746 0.17352,-0.07938 0.37104,-0.07938 0.33966,0 0.50026,0.20675 0.16245,0.204904 0.16245,0.5741 z"
         style="fill:#ff0000;stroke:#ff0000;stroke-width:0.09451414"
         id="path5364" />
    </g>
    <path
       sodipodi:type="star"
       style="fill:#ffffff;fill-opacity:1;stroke:#ff0000;stroke-width:0.19099998;stroke-miterlimit:4;stroke-dasharray:none;stroke-opacity:1"
       id="path5383"
       sodipodi:sides="5"
       sodipodi:cx="92.60416"
       sodipodi:cy="75.789437"
       sodipodi:r1="10.018151"
       sodipodi:r2="5.0090756"
       sodipodi:arg1="0.9461609"
       sodipodi:arg2="1.5744794"
       inkscape:flatsided="false"
       inkscape:rounded="0"
       inkscape:randomized="0"
       d="m 98.462787,83.915924 -5.877079,-3.117446 -5.899884,3.07407 1.14875,-6.552778 -4.746779,-4.661184 6.587046,-0.932393 2.966213,-5.95484 2.922269,5.976527 6.579997,0.98089 -4.780983,4.626091 z"
       inkscape:transform-center-x="-0.011400897"
       inkscape:transform-center-y="-0.94579882" />
    <path
       sodipodi:type="star"
       style="fill:#ffffff;fill-opacity:1;stroke:#ff0000;stroke-width:0.19099998;stroke-miterlimit:4;stroke-dasharray:none;stroke-opacity:1"
       id="path5385"
       sodipodi:sides="5"
       sodipodi:cx="92.604164"
       sodipodi:cy="75.505951"
       sodipodi:r1="6.3122096"
       sodipodi:r2="3.1561048"
       sodipodi:arg1="0.92879222"
       sodipodi:arg2="1.5571108"
       inkscape:flatsided="false"
       inkscape:rounded="0"
       inkscape:randomized="0"
       d="m 96.383926,80.561383 -3.73657,-1.899623 -3.683182,2.001173 0.651984,-4.140706 -3.041394,-2.884518 4.139519,-0.659474 1.803498,-3.783903 1.906379,3.733128 4.156016,0.545938 -2.961312,2.966674 z"
       inkscape:transform-center-x="0.026695138"
       inkscape:transform-center-y="-0.57731939" />
    <path
       sodipodi:type="star"
       style="fill:none;fill-opacity:1;stroke:#000000;stroke-width:0.19099998;stroke-miterlimit:4;stroke-dasharray:none;stroke-opacity:1"
       id="path5385-7"
       sodipodi:sides="5"
       sodipodi:cx="92.604164"
       sodipodi:cy="75.505951"
       sodipodi:r1="6.3122096"
       sodipodi:r2="3.1561048"
       sodipodi:arg1="0.92879222"
       sodipodi:arg2="1.5571108"
       inkscape:flatsided="false"
       inkscape:rounded="0"
       inkscape:randomized="0"
       d="m 96.383926,80.561383 -3.73657,-1.899623 -3.683182,2.001173 0.651984,-4.140706 -3.041394,-2.884518 4.139519,-0.659474 1.803498,-3.783903 1.906379,3.733128 4.156016,0.545938 -2.961312,2.966674 z"
       inkscape:transform-center-x="0.026695138"
       inkscape:transform-center-y="-0.57731939" />
  </g>
</svg>
